<?xml version="1.0" encoding="utf-8"?>
<!-- Generator: Adobe Illustrator 26.0.1, SVG Export Plug-In . SVG Version: 6.00 Build 0)  -->
<svg version="1.1" id="Layer_1" xmlns="http://www.w3.org/2000/svg" xmlns:xlink="http://www.w3.org/1999/xlink" x="0px" y="0px"
	 viewBox="0 0 128 128" style="enable-background:new 0 0 128 128;" xml:space="preserve">
<style type="text/css">
	.st0{fill:#030303;}
	.st1{fill:#55BD59;}
	.st2{fill:#FB4523;}
	.st3{fill:#181917;}
	.st4{fill:#FCFCFC;}
</style>
<g>
	<path class="st0" d="M119.7,84.8c-2.5,3.8-5.8,6.3-10.4,6.8c-3.1,0.4-5.9-0.6-8.7-2c-2.3-1.1-4.6-2.1-7.2-2.5c-3-0.5-6-0.5-8.9,0.1
		c-1.4,0.3-2.9,0.6-4.3,0.8c-2.1,0.3-3.8-0.5-4.5-2.1c-0.2-0.6-0.2-1.2-0.2-1.8c0.1-0.8-0.1-1.5-0.9-1.9c-1.2-0.8-1.3-1.3-0.4-2.5
		c0.2-0.3,0-0.4-0.2-0.6c-1.5-0.9-1.6-1.5-0.7-3c0.5-0.8,0.4-1.4-0.4-1.9c-0.3-0.2-0.7-0.4-1-0.6c-1-0.5-1.3-1.4-0.8-2.4
		c0.3-0.7,0.8-1.2,1.3-1.7c1.2-1.3,2.3-2.7,3-4.3c0.5-1.2,0.6-2.5,0.8-3.8c0.5-3.7,2.4-6.6,5.4-8.9c3.9-2.9,8.1-5.2,12.3-7.6
		c5.6-3.2,11.3-6.2,16.6-9.9c1.9-1.3,3.8-2.7,5.1-4.7c1.6,2,1.5,4.8-0.1,7.1c-1.5,2.1-3.6,3.5-5.6,4.9c-4.7,3.2-9.7,6-14.6,8.9
		c-2.5,1.5-4.9,3-7.4,4.6c-3.2,2.1-4.7,5.2-5.2,8.9c-0.2,1.4-0.3,2.9-1.4,4.1c-0.3,0.4-0.7,0.7-1.1,1c-1.1,1-1,2.2,0.4,2.7
		c1,0.4,1.3,1.1,0.7,2.1c-0.4,0.7-0.4,1.1,0.3,1.6c0.4,0.2,0.5,0.5,0.3,1c-0.4,0.7-0.3,1.3,0.4,1.7c0.8,0.4,1,1,1.1,1.8
		c0,0.2,0,0.3,0.1,0.5c0.5,2.6,1.8,3.6,4.5,3.4c2.3-0.1,4.4-0.9,6.5-1.4c4.3-1.2,8.5-0.9,12.7,0.6c2,0.7,4,1.3,6,1.7
		c1.1,0.2,2.2,0.2,3.3,0.2C117.5,85.2,118.6,85.1,119.7,84.8z"/>
	<path class="st1" d="M20.7,70.3c0.3-1.9,1.2-3.3,2.6-4.4c1.4-1.1,3.1-1.6,4.8-1.7c3-0.2,6,0.2,8.9,0.7c2.4,0.4,4.8,0.8,7.3,1
		c4.3,0.3,7-1.9,8.1-6.3c0.8-3.4,1.8-6.7,3.2-9.9c2.1-4.5,5.6-7.7,9.7-10.2c5.8-3.5,11.9-6.5,17.7-9.8c4.9-2.8,9.8-5.5,14.5-8.6
		c4.1-2.7,8.2-5.4,11.8-8.7c2.1-1.9,3.9-4.2,4.6-5.9c1,1,1.4,3.1,0.9,4.8c-0.5,1.6-1.4,2.8-2.6,4c-2.8,2.9-6.1,5.4-9.4,7.6
		c-7.8,5.2-15.9,10-24,14.7c-3.9,2.2-7.7,4.5-11.4,6.9c-4.1,2.6-6.5,6.4-7.8,10.9c-0.9,2.9-1.5,5.9-2.6,8.8
		c-1.4,3.6-3.8,6.2-7.7,7.2c-1.9,0.5-3.9,0.5-5.8,0.2c-4.2-0.6-8.4-1.4-12.7-1.9C27.6,69.2,24.1,69.1,20.7,70.3z"/>
	<path class="st2" d="M6.8,77.4c1.1-2.3,2.9-3.8,5.3-4.5c3.1-0.9,6.1-0.4,9.1,0.4c6.5,1.7,12.6,4.5,18.6,7.4
		c5.6,2.7,11.2,5.7,16.6,8.9c2.5,1.5,5.1,3,7.2,5.1c2.2,2.3,2.6,5.3,1.1,8.1c-1.4,2.5-3.4,4.3-5.5,6.1c-1.2,1.1-2.5,2.1-3.5,3.4
		c-1.3,1.8-1,3.8,0.8,5.1c1.7,1.3,3.7,1.8,5.7,2.1c0.4,0.1,0.8,0.1,1.4,0.2c-2.3,1.6-4.8,2-7.4,1.8c-1.9-0.2-3.6-0.7-5.3-1.7
		c-3.4-2.1-4.1-6.3-1.5-9.4c1.4-1.8,3.2-3.1,5-4.4c1.3-0.9,2.5-1.9,3.6-3.1c1.6-1.7,1.6-3.2-0.1-4.9c-1.8-1.7-4-2.9-6.2-4.1
		c-8.9-5.1-18.1-9.5-27.5-13.4c-3.4-1.4-6.8-2.6-10.4-3.2c-1.9-0.3-3.9-0.4-5.8-0.1C7.5,77.4,7.2,77.4,6.8,77.4z"/>
	<path class="st3" d="M75.3,89.9c1.5,0.2,2.8-0.2,4.1-0.1c3.6,0.3,5.2,3.5,3.4,6.6c-0.9,1.5-2.1,2.6-3.5,3.6c-1.4,1-2.9,1.7-4.4,2.6
		c-0.7,0.4-1.4,0.9-2,1.5c-1.3,1.2-1.4,3-0.2,4.4c1.2,1.5,3,1.9,4.8,2.3c0.6,0.1,1.3,0.2,1.9,0.2c0.2,0,0.5,0,0.6,0.2
		c0.1,0.2-0.2,0.4-0.3,0.5c-1.1,0.9-2.4,1.5-3.8,1.6c-2.7,0.2-5.2-0.4-7.3-2.1c-2.2-1.7-2.7-4.9-1-7.1c1.1-1.5,2.6-2.4,4.1-3.4
		c1-0.7,2.1-1.4,2.7-2.6c0.9-1.7,0.7-4.3-2.1-5.2c-1.6-0.5-3.3-0.5-4.9-0.7c-1.6-0.3-3.2-0.5-4.7-1.4c-1.7-1-2.3-2.6-1.6-4.5
		c0.1-0.2,0.1-0.4,0.2-0.6c0.3-0.9,0.1-1.3-0.6-1.7c-1.5-0.9-1.7-1.9-0.7-3.3c0.2-0.2,0.2-0.3-0.1-0.5c-1.3-1-1.4-2-0.4-3.3
		c0.1-0.2,0.3-0.3,0.4-0.5c0.2-0.4,0.3-0.8-0.3-0.9c-0.5-0.2-0.9-0.4-1.4-0.6c-1.2-0.6-1.5-1.6-0.9-2.9c0.6-1.3,1.7-2.1,2.6-3.1
		c2.1-1.9,3.1-4.3,3.4-7.1c0.3-2.9,1.1-5.6,2.3-8.2c2-4.1,5-7.1,8.8-9.5c6.4-3.9,12.9-7.4,19.3-11.2c5.1-3,10.2-5.9,15-9.2
		c3-2.1,5.9-4.2,8.3-7c0.9-1,1.6-2.1,1.9-3.5c0-0.2,0.1-0.3,0.2-0.4c0.2,0,0.2,0.2,0.3,0.3c2.2,2.5,2.3,5.3,0.1,8
		c-2.1,2.6-4.7,4.7-7.4,6.6c-5.2,3.6-10.7,6.8-16.1,10.1c-5.3,3.2-10.6,6.2-15.8,9.5c-2.1,1.3-4.2,2.7-5.9,4.6
		c-2.2,2.5-3.2,5.5-3.8,8.6c-0.3,1.4-0.4,2.8-0.6,4.2c-0.3,1.9-1.5,3.2-2.8,4.4c-0.5,0.4-0.9,0.9-1.3,1.4c-1,1.4-0.7,2.5,0.8,3.3
		c1.3,0.7,1.5,1.4,0.7,2.7c-0.1,0.1-0.1,0.2-0.2,0.3c-0.7,1.1-0.5,1.7,0.7,2.2c0.4,0.2,0.6,0.3,0.2,0.8c-1,1.1-0.9,1.6,0.3,2.3
		c1.1,0.7,1,1.6,0.8,2.6c-0.3,2,0.5,3.7,2.1,4.4c0.7,0.3,1.5,0.5,2.3,0.5C74.2,89.9,74.8,89.9,75.3,89.9z M79.3,111.5
		c-1.9-0.1-3.6-0.6-5.2-1.4c-2.7-1.5-3.5-4.7-0.6-6.8c1.1-0.9,2.4-1.5,3.6-2.2c2.1-1.2,4.1-2.5,5.4-4.7c1-1.7,0.9-4.1-0.4-5.2
		c-1.1-0.9-2.5-1.1-3.9-1c-1.8,0.1-3.6,0.2-5.4-0.1c-1.8-0.3-3.2-1.2-3.7-3c-0.2-0.8-0.3-1.6-0.1-2.4c0.2-1.1-0.1-1.8-1.1-2.4
		c-1-0.6-1-1.3-0.4-2.2c0.3-0.4,0.2-0.5-0.2-0.8c-1-0.7-1.1-1.3-0.5-2.4c1-1.7,1-1.7-0.6-2.7c-1.4-1-1.6-2.1-0.7-3.5
		c0.6-0.9,1.4-1.6,2.1-2.3c0.9-0.9,1.7-2,1.9-3.3c0.2-1.3,0.4-2.7,0.6-4c0.5-3,1.3-5.9,3.2-8.3c1.7-2.3,4-3.9,6.4-5.4
		c4.3-2.9,8.9-5.4,13.4-8.1c6.5-3.9,13-7.6,19.2-11.9c2.8-2,5.5-4.1,7.5-6.9c1.6-2.2,1.4-4.8-0.3-6.5c-0.4,1.1-1.1,2.1-1.9,3
		c-2,2.5-4.6,4.5-7.2,6.3c-5.9,4.3-12.3,7.8-18.6,11.5c-5.5,3.2-11,6.3-16.4,9.5c-2.6,1.6-5,3.4-6.8,5.8c-2.8,3.6-4.2,7.8-4.8,12.3
		c-0.3,2.5-1.2,4.8-3.1,6.6c-0.8,0.7-1.5,1.5-2.2,2.3c-1.3,1.5-1.2,3,0.9,3.6c1.7,0.5,1.7,0.9,0.7,2.3c-0.8,1.2-0.7,2.3,0.6,2.8
		c0.4,0.2,0.6,0.4,0.1,0.9c-1,0.9-0.9,2,0.2,2.7c1.2,0.8,1.4,1.3,0.9,2.6c-0.8,2.1-0.1,3.6,2,4.5c1.6,0.7,3.2,0.9,4.8,1.1
		c1.5,0.2,3.1,0.3,4.5,0.9c1.8,0.7,2.6,2.2,2.4,4.1c-0.2,1.6-1.2,2.7-2.4,3.6c-1.5,1.1-3.1,2-4.4,3.3c-2.3,2.4-1.9,5.8,1,7.5
		c1.2,0.8,2.5,1.3,4,1.5C75.4,113,77.5,112.9,79.3,111.5z"/>
	<path class="st4" d="M79.3,111.5c-1.8,1.4-3.8,1.5-5.9,1.3c-1.4-0.2-2.8-0.7-4-1.5c-2.8-1.7-3.2-5.1-1-7.5c1.3-1.4,2.9-2.2,4.4-3.3
		c1.2-0.9,2.2-2,2.4-3.6c0.3-1.9-0.6-3.4-2.4-4.1c-1.5-0.6-3-0.7-4.5-0.9c-1.7-0.2-3.3-0.4-4.8-1.1c-2.1-0.9-2.7-2.4-2-4.5
		c0.5-1.3,0.3-1.9-0.9-2.6c-1.1-0.7-1.3-1.9-0.2-2.7c0.5-0.5,0.3-0.7-0.1-0.9c-1.3-0.5-1.4-1.7-0.6-2.8c1-1.4,1-1.8-0.7-2.3
		c-2.1-0.6-2.2-2.1-0.9-3.6c0.7-0.8,1.5-1.6,2.2-2.3c1.9-1.8,2.8-4,3.1-6.6c0.6-4.5,1.9-8.7,4.8-12.3c1.9-2.4,4.2-4.2,6.8-5.8
		c5.4-3.3,11-6.3,16.4-9.5c6.3-3.7,12.7-7.3,18.6-11.5c2.6-1.9,5.2-3.8,7.2-6.3c0.7-0.9,1.4-1.9,1.9-3c1.8,1.7,1.9,4.3,0.3,6.5
		c-2,2.8-4.7,5-7.5,6.9c-6.2,4.3-12.8,8-19.2,11.9c-4.5,2.7-9,5.2-13.4,8.1c-2.3,1.5-4.6,3.1-6.4,5.4c-1.9,2.5-2.7,5.3-3.2,8.3
		c-0.2,1.3-0.4,2.7-0.6,4c-0.2,1.3-1,2.4-1.9,3.3c-0.7,0.7-1.5,1.4-2.1,2.3c-0.9,1.5-0.7,2.6,0.7,3.5c1.6,1,1.6,1,0.6,2.7
		c-0.6,1-0.5,1.7,0.5,2.4c0.3,0.2,0.4,0.4,0.2,0.8c-0.7,0.9-0.6,1.6,0.4,2.2c0.9,0.6,1.3,1.3,1.1,2.4c-0.2,0.8-0.1,1.6,0.1,2.4
		c0.5,1.8,1.9,2.7,3.7,3c1.8,0.3,3.6,0.2,5.4,0.1c1.4-0.1,2.8,0,3.9,1c1.3,1.1,1.4,3.5,0.4,5.2c-1.3,2.2-3.3,3.5-5.4,4.7
		c-1.2,0.7-2.5,1.3-3.6,2.2c-2.8,2.1-2.1,5.3,0.6,6.8C75.6,110.9,77.4,111.4,79.3,111.5z"/>
</g>
</svg>
