<?xml version="1.0" encoding="utf-8"?>
<!-- Generator: Adobe Illustrator 26.0.1, SVG Export Plug-In . SVG Version: 6.00 Build 0)  -->
<svg version="1.1" id="Layer_1" xmlns="http://www.w3.org/2000/svg" xmlns:xlink="http://www.w3.org/1999/xlink" x="0px" y="0px"
	 viewBox="0 0 1800 550" style="enable-background:new 0 0 1800 550;" xml:space="preserve">
<style type="text/css">
	.st0{fill:#030303;}
	.st1{fill:#55BD59;}
	.st2{fill:#FB4523;}
	.st3{fill:#181917;}
	.st4{fill:#FCFCFC;}
</style>
<g>
	<g>
		<path class="st0" d="M522.6,373.2c-11.6,18-26.8,29.8-48.1,32.2c-14.3,1.9-27.3-2.8-40.3-9.5c-10.6-5.2-21.3-9.9-33.3-11.8
			c-13.9-2.4-27.8-2.4-41.2,0.5c-6.5,1.4-13.4,2.8-19.9,3.8c-9.7,1.4-17.6-2.4-20.8-9.9c-0.9-2.8-0.9-5.7-0.9-8.5
			c0.5-3.8-0.5-7.1-4.2-9c-5.6-3.8-6-6.1-1.9-11.8c0.9-1.4,0-1.9-0.9-2.8c-6.9-4.3-7.4-7.1-3.2-14.2c2.3-3.8,1.9-6.6-1.9-9
			c-1.4-0.9-3.2-1.9-4.6-2.8c-4.6-2.4-6-6.6-3.7-11.3c1.4-3.3,3.7-5.7,6-8c5.6-6.1,10.6-12.8,13.9-20.3c2.3-5.7,2.8-11.8,3.7-18
			c2.3-17.5,11.1-31.2,25-42.1c18.1-13.7,37.5-24.6,56.9-35.9c25.9-15.1,52.3-29.3,76.8-46.8c8.8-6.1,17.6-12.8,23.6-22.2
			c7.4,9.5,6.9,22.7-0.5,33.6c-6.9,9.9-16.7,16.5-25.9,23.2c-21.8,15.1-44.9,28.4-67.6,42.1c-11.6,7.1-22.7,14.2-34.3,21.8
			c-14.8,9.9-21.8,24.6-24.1,42.1c-0.9,6.6-1.4,13.7-6.5,19.4c-1.4,1.9-3.2,3.3-5.1,4.7c-5.1,4.7-4.6,10.4,1.9,12.8
			c4.6,1.9,6,5.2,3.2,9.9c-1.9,3.3-1.9,5.2,1.4,7.6c1.9,0.9,2.3,2.4,1.4,4.7c-1.9,3.3-1.4,6.1,1.9,8c3.7,1.9,4.6,4.7,5.1,8.5
			c0,0.9,0,1.4,0.5,2.4c2.3,12.3,8.3,17,20.8,16.1c10.6-0.5,20.4-4.3,30.1-6.6c19.9-5.7,39.3-4.3,58.8,2.8c9.3,3.3,18.5,6.1,27.8,8
			c5.1,0.9,10.2,0.9,15.3,0.9C512.4,375.1,517.5,374.7,522.6,373.2z"/>
		<path class="st1" d="M64.3,304.7c1.4-9,5.6-15.6,12-20.8c6.5-5.2,14.3-7.6,22.2-8c13.9-0.9,27.8,0.9,41.2,3.3
			c11.1,1.9,22.2,3.8,33.8,4.7c19.9,1.4,32.4-9,37.5-29.8c3.7-16.1,8.3-31.7,14.8-46.8c9.7-21.3,25.9-36.4,44.9-48.2
			c26.8-16.5,55.1-30.7,81.9-46.3c22.7-13.2,45.4-26,67.1-40.7c19-12.8,38-25.5,54.6-41.1c9.7-9,18.1-19.9,21.3-27.9
			c4.6,4.7,6.5,14.7,4.2,22.7c-2.3,7.6-6.5,13.2-12,18.9c-13,13.7-28.2,25.5-43.5,35.9c-36.1,24.6-73.6,47.3-111.1,69.5
			c-18.1,10.4-35.6,21.3-52.8,32.6c-19,12.3-30.1,30.3-36.1,51.5c-4.2,13.7-6.9,27.9-12,41.6c-6.5,17-17.6,29.3-35.6,34
			c-8.8,2.4-18.1,2.4-26.8,0.9c-19.4-2.8-38.9-6.6-58.8-9C96.3,299.5,80.1,299,64.3,304.7z"/>
		<path class="st2" d="M0,338.2c5.1-10.9,13.4-18,24.5-21.3c14.3-4.3,28.2-1.9,42.1,1.9c30.1,8,58.3,21.3,86.1,35
			c25.9,12.8,51.8,27,76.8,42.1c11.6,7.1,23.6,14.2,33.3,24.1c10.2,10.9,12,25.1,5.1,38.3c-6.5,11.8-15.7,20.3-25.5,28.8
			c-5.6,5.2-11.6,9.9-16.2,16.1c-6,8.5-4.6,18,3.7,24.1c7.9,6.1,17.1,8.5,26.4,9.9c1.9,0.5,3.7,0.5,6.5,0.9
			c-10.6,7.6-22.2,9.5-34.3,8.5c-8.8-0.9-16.7-3.3-24.5-8c-15.7-9.9-19-29.8-6.9-44.4c6.5-8.5,14.8-14.7,23.1-20.8
			c6-4.3,11.6-9,16.7-14.7c7.4-8,7.4-15.1-0.5-23.2c-8.3-8-18.5-13.7-28.7-19.4c-41.2-24.1-83.8-44.9-127.3-63.4
			c-15.7-6.6-31.5-12.3-48.1-15.1c-8.8-1.4-18.1-1.9-26.8-0.5C3.2,338.2,1.9,338.2,0,338.2z"/>
		<path class="st3" d="M317.1,397.4c6.9,0.9,13-0.9,19-0.5c16.7,1.4,24.1,16.5,15.7,31.2c-4.2,7.1-9.7,12.3-16.2,17
			c-6.5,4.7-13.4,8-20.4,12.3c-3.2,1.9-6.5,4.3-9.3,7.1c-6,5.7-6.5,14.2-0.9,20.8c5.6,7.1,13.9,9,22.2,10.9c2.8,0.5,6,0.9,8.8,0.9
			c0.9,0,2.3,0,2.8,0.9c0.5,0.9-0.9,1.9-1.4,2.4c-5.1,4.3-11.1,7.1-17.6,7.6c-12.5,0.9-24.1-1.9-33.8-9.9
			c-10.2-8-12.5-23.2-4.6-33.6c5.1-7.1,12-11.3,19-16.1c4.6-3.3,9.7-6.6,12.5-12.3c4.2-8,3.2-20.3-9.7-24.6
			c-7.4-2.4-15.3-2.4-22.7-3.3c-7.4-1.4-14.8-2.4-21.8-6.6c-7.9-4.7-10.6-12.3-7.4-21.3c0.5-0.9,0.5-1.9,0.9-2.8
			c1.4-4.3,0.5-6.1-2.8-8c-6.9-4.3-7.9-9-3.2-15.6c0.9-0.9,0.9-1.4-0.5-2.4c-6-4.7-6.5-9.5-1.9-15.6c0.5-0.9,1.4-1.4,1.9-2.4
			c0.9-1.9,1.4-3.8-1.4-4.3c-2.3-0.9-4.2-1.9-6.5-2.8c-5.6-2.8-6.9-7.6-4.2-13.7s7.9-9.9,12-14.7c9.7-9,14.3-20.3,15.7-33.6
			c1.4-13.7,5.1-26.5,10.6-38.8c9.3-19.4,23.1-33.6,40.7-44.9c29.6-18.4,59.7-35,89.3-53c23.6-14.2,47.2-27.9,69.4-43.5
			c13.9-9.9,27.3-19.9,38.4-33.1c4.2-4.7,7.4-9.9,8.8-16.5c0-0.9,0.5-1.4,0.9-1.9c0.9,0,0.9,0.9,1.4,1.4
			c10.2,11.8,10.6,25.1,0.5,37.8c-9.7,12.3-21.8,22.2-34.3,31.2c-24.1,17-49.5,32.2-74.5,47.8c-24.5,15.1-49.1,29.3-73.1,44.9
			c-9.7,6.1-19.4,12.8-27.3,21.8c-10.2,11.8-14.8,26-17.6,40.7c-1.4,6.6-1.9,13.2-2.8,19.9c-1.4,9-6.9,15.1-13,20.8
			c-2.3,1.9-4.2,4.3-6,6.6c-4.6,6.6-3.2,11.8,3.7,15.6c6,3.3,6.9,6.6,3.2,12.8c-0.5,0.5-0.5,0.9-0.9,1.4c-3.2,5.2-2.3,8,3.2,10.4
			c1.9,0.9,2.8,1.4,0.9,3.8c-4.6,5.2-4.2,7.6,1.4,10.9c5.1,3.3,4.6,7.6,3.7,12.3c-1.4,9.5,2.3,17.5,9.7,20.8
			c3.2,1.4,6.9,2.4,10.6,2.4C312,397.4,314.7,397.4,317.1,397.4z M335.6,499.5c-8.8-0.5-16.7-2.8-24.1-6.6
			c-12.5-7.1-16.2-22.2-2.8-32.2c5.1-4.3,11.1-7.1,16.7-10.4c9.7-5.7,19-11.8,25-22.2c4.6-8,4.2-19.4-1.9-24.6
			c-5.1-4.3-11.6-5.2-18.1-4.7c-8.3,0.5-16.7,0.9-25-0.5c-8.3-1.4-14.8-5.7-17.1-14.2c-0.9-3.8-1.4-7.6-0.5-11.3
			c0.9-5.2-0.5-8.5-5.1-11.3c-4.6-2.8-4.6-6.1-1.9-10.4c1.4-1.9,0.9-2.4-0.9-3.8c-4.6-3.3-5.1-6.1-2.3-11.3c4.6-8,4.6-8-2.8-12.8
			c-6.5-4.7-7.4-9.9-3.2-16.5c2.8-4.3,6.5-7.6,9.7-10.9c4.2-4.3,7.9-9.5,8.8-15.6c0.9-6.1,1.9-12.8,2.8-18.9
			c2.3-14.2,6-27.9,14.8-39.2c7.9-10.9,18.5-18.4,29.6-25.5c19.9-13.7,41.2-25.5,62-38.3c30.1-18.4,60.2-35.9,88.9-56.3
			c13-9.5,25.5-19.4,34.7-32.6c7.4-10.4,6.5-22.7-1.4-30.7c-1.9,5.2-5.1,9.9-8.8,14.2c-9.3,11.8-21.3,21.3-33.3,29.8
			c-27.3,20.3-56.9,36.9-86.1,54.4c-25.5,15.1-50.9,29.8-75.9,44.9c-12,7.6-23.1,16.1-31.5,27.4c-13,17-19.4,36.9-22.2,58.2
			c-1.4,11.8-5.6,22.7-14.3,31.2c-3.7,3.3-6.9,7.1-10.2,10.9c-6,7.1-5.6,14.2,4.2,17c7.9,2.4,7.9,4.3,3.2,10.9
			c-3.7,5.7-3.2,10.9,2.8,13.2c1.9,0.9,2.8,1.9,0.5,4.3c-4.6,4.3-4.2,9.5,0.9,12.8c5.6,3.8,6.5,6.1,4.2,12.3
			c-3.7,9.9-0.5,17,9.3,21.3c7.4,3.3,14.8,4.3,22.2,5.2c6.9,0.9,14.3,1.4,20.8,4.3c8.3,3.3,12,10.4,11.1,19.4
			c-0.9,7.6-5.6,12.8-11.1,17c-6.9,5.2-14.3,9.5-20.4,15.6c-10.6,11.3-8.8,27.4,4.6,35.5c5.6,3.8,11.6,6.1,18.5,7.1
			C317.5,506.6,327.2,506.1,335.6,499.5z"/>
		<path class="st4" d="M335.6,499.5c-8.3,6.6-17.6,7.1-27.3,6.1c-6.5-0.9-13-3.3-18.5-7.1c-13-8-14.8-24.1-4.6-35.5
			c6-6.6,13.4-10.4,20.4-15.6c5.6-4.3,10.2-9.5,11.1-17c1.4-9-2.8-16.1-11.1-19.4c-6.9-2.8-13.9-3.3-20.8-4.3
			c-7.9-0.9-15.3-1.9-22.2-5.2c-9.7-4.3-12.5-11.3-9.3-21.3c2.3-6.1,1.4-9-4.2-12.3c-5.1-3.3-6-9-0.9-12.8c2.3-2.4,1.4-3.3-0.5-4.3
			c-6-2.4-6.5-8-2.8-13.2c4.6-6.6,4.6-8.5-3.2-10.9c-9.7-2.8-10.2-9.9-4.2-17c3.2-3.8,6.9-7.6,10.2-10.9c8.8-8.5,13-18.9,14.3-31.2
			c2.8-21.3,8.8-41.1,22.2-58.2c8.8-11.3,19.4-19.9,31.5-27.4c25-15.6,50.9-29.8,75.9-44.9c29.2-17.5,58.8-34.5,86.1-54.4
			c12-9,24.1-18,33.3-29.8c3.2-4.3,6.5-9,8.8-14.2c8.3,8,8.8,20.3,1.4,30.7c-9.3,13.2-21.8,23.6-34.7,32.6
			c-28.7,20.3-59.2,37.8-88.9,56.3c-20.8,12.8-41.7,24.6-62,38.3c-10.6,7.1-21.3,14.7-29.6,25.5c-8.8,11.8-12.5,25.1-14.8,39.2
			c-0.9,6.1-1.9,12.8-2.8,18.9c-0.9,6.1-4.6,11.3-8.8,15.6c-3.2,3.3-6.9,6.6-9.7,10.9c-4.2,7.1-3.2,12.3,3.2,16.5
			c7.4,4.7,7.4,4.7,2.8,12.8c-2.8,4.7-2.3,8,2.3,11.3c1.4,0.9,1.9,1.9,0.9,3.8c-3.2,4.3-2.8,7.6,1.9,10.4c4.2,2.8,6,6.1,5.1,11.3
			c-0.9,3.8-0.5,7.6,0.5,11.3c2.3,8.5,8.8,12.8,17.1,14.2s16.7,0.9,25,0.5c6.5-0.5,13,0,18.1,4.7c6,5.2,6.5,16.5,1.9,24.6
			c-6,10.4-15.3,16.5-25,22.2c-5.6,3.3-11.6,6.1-16.7,10.4c-13,9.9-9.7,25.1,2.8,32.2C318.4,496.7,326.8,499,335.6,499.5z"/>
	</g>
	<g>
		<g>
			<path d="M569.4,164.9c-8.3,0-14.4-2-18.1-6.1c-3.7-4.1-5.6-10.6-5.6-19.7c0-4.7,0.4-8.9,1.1-12.7c0.7-3.8,1.4-7.4,2.1-11
				c0.7-3.6,1-7.4,1-11.5c0-2.6-0.2-4.9-0.5-6.8c-0.3-2-0.8-3.7-1.2-5.2c2-1.1,3.9-2.1,5.9-2.9c2-0.8,4-1.3,6-1.3
				c2.5,0,4.4,0.8,5.7,2.5c1.2,1.7,1.8,4.2,1.8,7.7c0,3.7-0.5,7.8-1.4,12.2c-0.9,4.5-1.9,9.1-2.9,13.9c-1,4.8-1.5,9.6-1.5,14.4
				c0,4.7,0.8,7.8,2.3,9.2c1.5,1.5,4.2,2.2,8.2,2.2h58.9l-3.4,3.8c-2.3-3.5-3.9-7.5-5.1-11.9c-1.1-4.4-1.7-9.3-1.7-14.6
				c0-8.3,1.2-16,3.6-23c2.4-7,5.8-13.1,10.2-18.2c4.4-5.1,9.6-9.1,15.6-11.9c6-2.8,12.5-4.2,19.7-4.2c4.5,0,8.5,0.5,12.1,1.5
				c3.6,1,6.6,2.3,9.2,3.8c2.5,1.5,4.7,3,6.3,4.5c1.7,1.5,2.8,2.8,3.5,3.8c0,0.5-0.3,2.1-0.9,4.7c-0.6,2.7-1.3,6-2.3,10.1
				c-0.9,4.1-1.9,8.5-3,13.4c-1.1,4.9-2.1,9.8-3,14.9c-0.9,5.1-1.7,9.9-2.4,14.6c-0.6,4.7-1,8.8-1.1,12.4l-7.2,11.4H569.4z
				 M672.4,152.9c0.1-4,0.5-8.5,1.2-13.5c0.7-5,1.5-10.2,2.6-15.5c1-5.3,2.1-10.4,3.2-15.2c1.1-4.9,2.1-9.2,3-13
				c0.9-3.8,1.6-6.7,2.1-8.6l0.1,2c-0.9-0.8-2.6-1.7-5.1-2.6c-2.5-0.9-5.6-1.4-9.1-1.4c-5.8,0-11.2,1.6-16.2,4.7
				c-5,3.2-9,7.8-12.1,14c-3.1,6.2-4.6,13.8-4.6,22.8c0,5.4,0.5,9.8,1.6,13.1c1.1,3.3,2.3,5.8,3.7,7.4c1.4,1.7,2.4,2.9,3.2,3.7
				l-4.6-1.1h35.6L672.4,152.9z M670.5,56.9c-2.8,0-5.1-0.7-6.8-2.2c-1.7-1.4-2.5-3.4-2.5-5.8c0-3.5,1.2-6.4,3.5-8.6
				c2.4-2.2,5.3-3.3,9-3.3c2.8,0,5.1,0.7,6.8,2.2c1.7,1.5,2.5,3.4,2.5,5.9c0,3.4-1.2,6.2-3.5,8.4C677.2,55.8,674.2,56.9,670.5,56.9z
				 M699.7,164.9c-3.7,0-6.7-1.1-8.9-3.2c-2.2-2.1-3.7-4.9-4.5-8.3l6.2,3.6h-14.3l15.3-38.1c-0.6,2.8-1.1,5.6-1.5,8.3
				c-0.4,2.7-0.6,5-0.6,6.9c0,4.6,1.2,8.4,3.7,11.3c2.4,3,5.9,4.4,10.4,4.4h7.2l-2.4,15H699.7z M710.4,164.9l2.5-15
				c1.1,0,1.7,0.7,1.9,2c0.2,1.3,0.1,3.2-0.3,5.6c-0.4,2.2-0.9,4-1.5,5.4C712.4,164.2,711.5,164.9,710.4,164.9z"/>
			<path d="M717.6,196.8c-2.8,0-5.1-0.7-6.8-2.2c-1.7-1.5-2.5-3.4-2.5-5.8c0-3.5,1.2-6.4,3.5-8.6c2.4-2.2,5.3-3.3,9-3.3
				c2.8,0,5.1,0.7,6.8,2.2c1.7,1.4,2.5,3.4,2.5,5.9c0,3.4-1.2,6.2-3.5,8.4C724.4,195.7,721.4,196.8,717.6,196.8z M710.6,164.9
				c-1.1,0-1.7-0.7-2-2c-0.2-1.3-0.2-3.2,0.2-5.6c0.5-2.3,1-4.1,1.6-5.5c0.6-1.4,1.4-2,2.5-2L710.6,164.9z M710.6,164.9l2.4-15h21.7
				l-5.1,5.3v-5.4c0-2.2,0.3-5,0.9-8.3c0.6-3.4,1.3-7,2.1-10.9c0.8-3.9,1.7-7.9,2.5-11.9c0.8-4.1,1.5-7.9,2.1-11.6
				c0.5-3.7,0.8-7,0.8-9.9c0-2.1-0.1-4.1-0.4-6.1c-0.3-2-0.7-3.7-1.2-5.3c2-1.2,4-2.2,6.1-2.9c2.1-0.8,4.1-1.1,6-1.1
				c2.6,0,4.6,0.8,5.8,2.5c1.2,1.7,1.8,4.1,1.8,7.3c0,2.7-0.3,5.9-1,9.5c-0.7,3.6-1.5,7.4-2.4,11.3c-0.9,3.9-1.7,7.7-2.4,11.3
				c-0.7,3.7-1,7-1,10c0,5.1,1.2,9.1,3.6,12.1c2.4,3,5.9,4.4,10.4,4.4h6.8l-2.4,15H757c-3.6,0-6.5-1.1-8.7-3.2
				c-2.2-2.1-3.7-4.9-4.5-8.3l4.6,3.6h-4.6l-5,7.8H710.6z M741.4,196.8c-2.7,0-4.9-0.7-6.6-2.2c-1.7-1.5-2.5-3.4-2.5-5.8
				c0-3.5,1.2-6.4,3.5-8.6c2.4-2.2,5.3-3.3,9-3.3c2.8,0,5.1,0.7,6.8,2.2c1.7,1.4,2.5,3.4,2.5,5.9c0,3.4-1.2,6.2-3.5,8.4
				C748.2,195.7,745.2,196.8,741.4,196.8z M767.6,164.9l2.5-15c1.1,0,1.7,0.7,1.9,2c0.2,1.3,0.1,3.2-0.3,5.6c-0.4,2.2-0.9,4-1.5,5.4
				C769.5,164.2,768.7,164.9,767.6,164.9z"/>
			<path d="M767.7,164.9c-1.1,0-1.7-0.7-2-2c-0.2-1.3-0.2-3.2,0.2-5.6c0.5-2.3,1-4.1,1.6-5.5c0.6-1.4,1.4-2,2.5-2L767.7,164.9z
				 M767.7,164.9l2.4-15h50.1l-2.4,15H767.7z M817.8,164.9l2.5-15c1.1,0,1.7,0.7,1.9,2c0.2,1.3,0.1,3.2-0.3,5.6
				c-0.4,2.2-0.9,4-1.5,5.4C819.8,164.2,818.9,164.9,817.8,164.9z"/>
			<path d="M818,164.9c-1.1,0-1.7-0.7-2-2c-0.2-1.3-0.2-3.2,0.2-5.6c0.5-2.3,1-4.1,1.6-5.5c0.6-1.4,1.4-2,2.5-2L818,164.9z
				 M818,164.9l2.4-15h24.4l-4.3,1.5c-0.1-2.4,0.1-5.8,0.5-10.2c0.4-4.4,1.1-9.5,1.9-15.2c0.8-5.8,1.8-11.8,2.9-18.2
				c1.1-6.4,2.2-12.7,3.3-19c1.1-6.3,2.2-12.3,3.2-17.9c1-5.7,1.9-10.6,2.6-14.8l2.6,6.6l-9.7-11.4c2.4-2,5.2-3.6,8.4-4.7
				c3.1-1.1,6-1.7,8.5-1.7c2.5,0,4.5,0.6,5.7,1.7c1.3,1.2,1.9,3,1.9,5.6c0,2.5-0.5,6.4-1.5,11.7c-1,5.3-2.4,11.8-4,19.6
				c-1.6,7.8-3.3,16.5-4.9,26.3l-1.5-4.1c5.4-9.7,12.8-17.4,22.3-23c9.5-5.6,20.7-8.4,33.7-8.4c10.2,0,19,1.7,26.5,5.1
				c7.5,3.4,13.3,8.3,17.3,14.6c4.1,6.3,6.1,13.8,6.1,22.5c0,7-1.3,13.5-4,19.4c-2.6,5.9-6.3,11-11.1,15.3
				c-4.8,4.3-10.3,7.7-16.7,10.1c-6.4,2.4-13.4,3.6-21.1,3.6H818z M855.7,152.3l-4.1-2.4h61.9c7.4,0,13.9-1.4,19.4-4.4
				c5.5-2.9,9.7-6.9,12.8-11.9c3-5.1,4.6-10.7,4.6-17c0-4.4-0.8-8.3-2.3-11.6c-1.5-3.4-3.7-6.2-6.6-8.5c-2.9-2.3-6.4-4.1-10.6-5.3
				c-4.2-1.2-8.9-1.8-14.3-1.8c-8.9,0-16.7,1.4-23.4,4.1c-6.7,2.7-12.3,6.3-17,10.8c-4.7,4.5-8.5,9.5-11.5,15
				c-3,5.5-5.2,11.1-6.5,16.8C856.6,141.8,855.8,147.2,855.7,152.3z M906.1,56.4c-2.8,0-5.1-0.7-6.8-2.2c-1.7-1.4-2.5-3.4-2.5-5.8
				c0-3.5,1.2-6.4,3.5-8.6c2.4-2.2,5.3-3.3,9-3.3c2.8,0,5.1,0.7,6.8,2.2c1.7,1.5,2.5,3.4,2.5,5.9c0,3.4-1.2,6.2-3.5,8.4
				C912.9,55.3,909.9,56.4,906.1,56.4z"/>
			<path d="M1010.9,216c-4.6,0-8.3-0.6-10.9-1.7c-2.7-1.1-4.6-2.5-5.7-4.2c-1.1-1.7-1.7-3.4-1.7-5.1c6,0,11.1-0.5,15.4-1.4
				c4.3-0.9,8-2.5,11.1-4.7c3.1-2.3,5.8-5.5,8.1-9.7c2.3-4.2,4.3-9.6,6.1-16.1c1.8-6.5,3.5-14.5,5.3-23.9c0.9-4.6,1.7-9.4,2.6-14.3
				c0.8-4.9,1.6-9.8,2.4-14.7c0.8-4.9,1.5-9.6,2.1-14.2c0.6-4.6,1.2-8.7,1.8-12.5c0.5-3.8,1-7,1.4-9.6l1.6,6.3
				c-1.3-0.8-3.4-1.9-6.4-3.2c-3-1.3-6.5-2-10.7-2c-4.2,0-8.3,0.9-12.2,2.8c-3.9,1.9-7.4,4.6-10.4,8.2c-3,3.6-5.4,8-7.2,13.1
				c-1.8,5.1-2.6,11-2.6,17.6c0,5.8,0.7,10.4,2.2,13.8c1.5,3.4,3.6,5.8,6.5,7.2c2.8,1.4,6.3,2.1,10.4,2.1h21.9v15h-22.3
				c-11.5,0-20.1-3.3-26-9.8c-5.9-6.5-8.8-16-8.8-28.4c0-8.1,1.2-15.6,3.5-22.4c2.4-6.9,5.7-12.9,10.1-18c4.4-5.2,9.5-9.2,15.5-12
				c6-2.9,12.5-4.3,19.7-4.3c4.4,0,8.4,0.5,11.9,1.5c3.5,1,6.6,2.3,9.2,3.8c2.6,1.5,4.7,3,6.4,4.5c1.7,1.5,2.8,2.8,3.5,3.8
				c0,0.6-0.2,2.9-0.7,7c-0.5,4.1-1.2,9.2-2.1,15.4c-0.9,6.2-1.9,12.9-2.9,20.2c-1.1,7.3-2.2,14.4-3.4,21.4
				c-1.3,7.6-2.7,14.8-4.3,21.6c-1.6,6.8-3.5,13.1-5.7,18.8c-2.2,5.7-4.8,10.7-7.9,14.9c-3.1,4.2-6.8,7.5-11.2,9.8
				C1022,214.8,1016.9,216,1010.9,216z M1050.6,164.9l3.5-15h23.7l-2.4,15H1050.6z M1075.4,164.9l2.5-15c1.1,0,1.7,0.7,1.9,2
				c0.2,1.3,0.1,3.2-0.3,5.6c-0.4,2.2-0.9,4-1.5,5.4C1077.3,164.2,1076.5,164.9,1075.4,164.9z"/>
			<path d="M1075.5,164.9c-1.1,0-1.7-0.7-2-2c-0.2-1.3-0.2-3.2,0.2-5.6c0.5-2.3,1-4.1,1.6-5.5c0.6-1.4,1.4-2,2.5-2L1075.5,164.9z
				 M1075.5,164.9l2.4-15h21.7l-5.1,5.3v-5.4c0-2.2,0.3-5,0.9-8.3c0.6-3.4,1.3-7,2.1-10.9c0.8-3.9,1.7-7.9,2.5-11.9
				c0.8-4.1,1.5-7.9,2.1-11.6c0.5-3.7,0.8-7,0.8-9.9c0-2.1-0.1-4.1-0.4-6.1c-0.3-2-0.7-3.7-1.2-5.3c2-1.2,4-2.2,6.1-2.9
				c2.1-0.8,4.1-1.1,6-1.1c2.6,0,4.6,0.8,5.8,2.5c1.2,1.7,1.8,4.1,1.8,7.3c0,2.7-0.3,5.9-1,9.5c-0.7,3.6-1.5,7.4-2.4,11.3
				c-0.9,3.9-1.7,7.7-2.4,11.3c-0.7,3.7-1,7-1,10c0,5.1,1.2,9.1,3.6,12.1c2.4,3,5.9,4.4,10.4,4.4h6.8l-2.4,15H1122
				c-3.6,0-6.5-1.1-8.7-3.2c-2.2-2.1-3.7-4.9-4.5-8.3l4.6,3.6h-4.6l-5,7.8H1075.5z M1102.7,68.1c-2.7,0-4.9-0.8-6.6-2.3
				c-1.7-1.5-2.5-3.4-2.5-5.7c0-3.6,1.2-6.5,3.5-8.6c2.4-2.2,5.3-3.2,9-3.2c2.8,0,5.1,0.7,6.7,2.2c1.6,1.5,2.4,3.4,2.4,5.9
				c0,3.4-1.2,6.2-3.5,8.4C1109.4,67,1106.4,68.1,1102.7,68.1z M1126.7,68.1c-2.7,0-5-0.8-6.7-2.3c-1.7-1.5-2.6-3.4-2.6-5.7
				c0-3.6,1.2-6.5,3.5-8.6c2.4-2.2,5.3-3.2,9-3.2c2.8,0,5.1,0.7,6.8,2.2c1.7,1.5,2.5,3.4,2.5,5.9c0,3.4-1.2,6.2-3.5,8.4
				C1133.4,67,1130.4,68.1,1126.7,68.1z M1132.5,164.9l2.5-15c1.1,0,1.7,0.7,1.9,2c0.2,1.3,0.1,3.2-0.3,5.6c-0.4,2.2-0.9,4-1.5,5.4
				C1134.5,164.2,1133.6,164.9,1132.5,164.9z"/>
			<path d="M1132.7,164.9c-1.1,0-1.7-0.7-2-2c-0.2-1.3-0.2-3.2,0.2-5.6c0.5-2.3,1-4.1,1.6-5.5c0.6-1.4,1.4-2,2.5-2L1132.7,164.9z
				 M1132.7,164.9l2.4-15h22.6l-5.3,1.5c0.1-2.8,0.5-7.1,1.2-12.8c0.7-5.7,1.7-12.2,2.8-19.5c1.1-7.3,2.3-14.8,3.5-22.6
				c1.2-7.8,2.4-15.2,3.7-22.2c1.2-7.1,2.3-13.1,3.3-18.2l2.6,6.6l-9.7-11.4c2.3-1.9,4.9-3.5,8.1-4.7c3.1-1.2,6.1-1.8,8.8-1.8
				c2.5,0,4.5,0.6,5.7,1.7c1.3,1.2,1.9,2.9,1.9,5.3c0,1.9-0.4,4.9-1.1,8.9c-0.7,4-1.7,8.8-2.8,14.3c-1.1,5.6-2.3,11.6-3.5,18.2
				c-1.2,6.6-2.4,13.3-3.5,20.2c-1.1,6.9-2.1,13.8-2.8,20.6c-0.7,6.8-1.1,13.3-1.1,19.4l-7.2,11.6H1132.7z M1180.7,164.9
				c-3.7,0-6.7-1.1-8.9-3.2c-2.2-2.1-3.7-4.9-4.5-8.3l6.2,3.6h-14.3l13.4-38c-0.4,2.9-0.8,5.6-1.1,8.2c-0.3,2.6-0.5,4.8-0.5,6.7
				c0,4.6,1.2,8.4,3.5,11.4s5.8,4.5,10.3,4.5h9.1l-2.4,15H1180.7z M1191.6,164.9l2.5-15c1.1,0,1.7,0.7,1.9,2
				c0.2,1.3,0.1,3.2-0.3,5.6c-0.4,2.2-0.9,4-1.5,5.4C1193.5,164.2,1192.7,164.9,1191.6,164.9z"/>
			<path d="M1191.7,164.9c-1.1,0-1.7-0.7-2-2c-0.2-1.3-0.2-3.2,0.2-5.6c0.5-2.3,1-4.1,1.6-5.5c0.6-1.4,1.4-2,2.5-2L1191.7,164.9z
				 M1191.7,164.9l2.4-15h22.6l-5.3,1.5c0.1-2.8,0.5-7.1,1.2-12.8c0.7-5.7,1.7-12.2,2.8-19.5c1.1-7.3,2.3-14.8,3.5-22.6
				c1.2-7.8,2.4-15.2,3.7-22.2c1.2-7.1,2.3-13.1,3.3-18.2l2.6,6.6l-9.7-11.4c2.3-1.9,4.9-3.5,8.1-4.7c3.1-1.2,6.1-1.8,8.8-1.8
				c2.5,0,4.5,0.6,5.7,1.7c1.3,1.2,1.9,2.9,1.9,5.3c0,1.9-0.4,4.9-1.1,8.9c-0.7,4-1.7,8.8-2.8,14.3c-1.1,5.6-2.3,11.6-3.5,18.2
				c-1.2,6.6-2.4,13.3-3.5,20.2c-1.1,6.9-2.1,13.8-2.8,20.6c-0.7,6.8-1.1,13.3-1.1,19.4l-7.2,11.6H1191.7z"/>
			<path d="M1366.3,232.3c-10.8,0-20.1-2.3-28-7c-7.9-4.7-13.9-11.3-18.1-19.8c-4.2-8.6-6.3-18.6-6.3-30.1c0-9.3,1.3-18.3,4-26.9
				c2.7-8.6,6.5-16.6,11.4-23.9c4.9-7.4,10.7-13.8,17.3-19.4c6.6-5.6,13.9-9.9,21.8-13.1l-10.3,7.5l-12.9,0.2
				c-3.1,0-6.5-0.2-10.2-0.5c-3.7-0.3-7.3-0.8-10.9-1.7c-3.6-0.8-6.8-1.9-9.7-3.4c-2.9-1.4-5.2-3.4-7-5.7c-1.8-2.3-2.6-5.2-2.6-8.5
				c0-1.6,0.2-3.1,0.7-4.5c0.5-1.4,1.2-2.9,2.2-4.5c4.7,1.4,10.6,2.9,17.6,4.6c7,1.7,14.5,3.2,22.5,4.7c8,1.5,15.9,2.7,23.7,3.6
				c7.8,1,14.8,1.4,21.1,1.4c2.8,0,5.2-0.2,7.1-0.6c1.9-0.4,3.7-1.1,5.4-2.1c1.4,1.9,2.3,3.6,2.9,5c0.5,1.5,0.8,3,0.8,4.7
				c0,3.8-1.4,6.5-4.3,8c-2.8,1.5-6.2,2.3-10.1,2.3c-2.2,0-4.6-0.1-7.3-0.5c-2.7-0.3-5.5-0.7-8.2-1.3c-2.7-0.5-5.1-1.2-7.1-1.9
				l4-2.4l-1.9,5.9c-6.1,2.3-11.7,5.9-17,10.7c-5.2,4.9-9.8,10.6-13.8,17.2s-7.1,13.8-9.3,21.5c-2.3,7.7-3.4,15.6-3.4,23.7
				c0,7.7,1,14.2,2.9,19.5c2,5.3,4.6,9.6,8,12.8c3.4,3.3,7.2,5.6,11.5,7.1c4.3,1.4,8.7,2.2,13.3,2.2c6.8,0,12.3-1.3,16.8-3.8
				c4.4-2.6,7.7-5.9,9.8-10.1c2.2-4.2,3.2-8.6,3.2-13.3c4.3,0,7.6,1,9.9,3.1c2.3,2,3.6,4.7,3.9,7.9c0.3,3.2-0.4,6.6-2.1,10.2
				c-1.7,3.6-4.3,7-7.9,10.2c-3.6,3.2-8.2,5.8-13.7,7.9C1380.2,231.3,1373.7,232.3,1366.3,232.3z"/>
			<path d="M1466.3,216c-4.6,0-8.3-0.6-10.9-1.7c-2.7-1.1-4.6-2.5-5.7-4.2c-1.1-1.7-1.7-3.4-1.7-5.1c6,0,11.1-0.5,15.4-1.4
				c4.3-0.9,8-2.5,11.1-4.7c3.1-2.3,5.8-5.5,8.1-9.7c2.3-4.2,4.3-9.6,6.1-16.1c1.8-6.5,3.5-14.5,5.3-23.9c0.9-4.6,1.7-9.4,2.6-14.3
				c0.8-4.9,1.6-9.8,2.4-14.7c0.8-4.9,1.5-9.6,2.1-14.2c0.6-4.6,1.2-8.7,1.8-12.5c0.5-3.8,1-7,1.4-9.6l1.6,6.3
				c-1.3-0.8-3.4-1.9-6.4-3.2c-3-1.3-6.5-2-10.7-2c-4.2,0-8.3,0.9-12.2,2.8c-3.9,1.9-7.4,4.6-10.4,8.2c-3,3.6-5.4,8-7.2,13.1
				c-1.8,5.1-2.6,11-2.6,17.6c0,5.8,0.7,10.4,2.2,13.8c1.5,3.4,3.6,5.8,6.5,7.2c2.8,1.4,6.3,2.1,10.4,2.1h21.9v15H1475
				c-11.5,0-20.1-3.3-26-9.8c-5.9-6.5-8.8-16-8.8-28.4c0-8.1,1.2-15.6,3.5-22.4c2.4-6.9,5.7-12.9,10.1-18c4.4-5.2,9.5-9.2,15.5-12
				c6-2.9,12.5-4.3,19.7-4.3c4.4,0,8.4,0.5,11.9,1.5c3.5,1,6.6,2.3,9.2,3.8c2.6,1.5,4.7,3,6.4,4.5c1.7,1.5,2.8,2.8,3.5,3.8
				c0,0.6-0.2,2.9-0.7,7c-0.5,4.1-1.2,9.2-2.1,15.4c-0.9,6.2-1.9,12.9-2.9,20.2c-1.1,7.3-2.2,14.4-3.4,21.4
				c-1.3,7.6-2.7,14.8-4.3,21.6c-1.6,6.8-3.5,13.1-5.7,18.8c-2.2,5.7-4.8,10.7-7.9,14.9c-3.1,4.2-6.8,7.5-11.2,9.8
				C1477.5,214.8,1472.3,216,1466.3,216z M1506,164.9l3.5-15h23.7l-2.4,15H1506z M1530.8,164.9l2.5-15c1.1,0,1.7,0.7,1.9,2
				c0.2,1.3,0.1,3.2-0.3,5.6c-0.4,2.2-0.9,4-1.5,5.4C1532.8,164.2,1531.9,164.9,1530.8,164.9z"/>
			<path d="M1531,164.9c-1.1,0-1.7-0.7-2-2c-0.2-1.3-0.2-3.2,0.2-5.6c0.5-2.3,1-4.1,1.6-5.5c0.6-1.4,1.4-2,2.5-2L1531,164.9z
				 M1531,164.9l2.4-15h8.1c3.6,0,6.9-0.8,9.8-2.5c2.9-1.7,5.3-3.7,7.1-6.1c1.9-2.4,2.9-4.7,3.2-6.9l7.2-47.1c2-3.6,4.7-6.7,8.2-9.2
				c3.5-2.6,7.4-4.5,11.9-5.8c4.5-1.3,9.1-2,14-2c7.3,0,13.6,1.5,18.7,4.4c5.1,2.9,9.1,7.1,11.8,12.6c2.7,5.5,4.1,12.2,4.1,20.1
				c0,7.7-1.2,15.3-3.7,22.7c-2.4,7.4-5.9,14.1-10.2,20.2c-4.4,6.1-9.5,10.9-15.5,14.6H1562l-2.2-7.8h-1c-1.3,1.6-3.3,3.3-6,5.1
				c-2.7,1.8-5.6,2.7-8.7,2.7H1531z M1574.5,155l-4.4-5.1h37.8l-6.8,1.1c2.6-1.6,5.5-4.4,8.7-8.5c3.1-4.1,5.8-9.1,8.1-15.1
				c2.3-6,3.4-12.7,3.4-20.1c0-6.9-1.3-12.3-4-16.1c-2.6-3.9-7.4-5.8-14.3-5.8c-4.6,0-8.8,0.8-12.6,2.5c-3.8,1.7-6.4,3.7-7.6,6.2
				l2.4-7.1L1574.5,155z M1580.5,164.9l2.2-15h61.1l-2.4,15H1580.5z M1641.3,164.9l2.5-15c1.1,0,1.7,0.7,1.9,2
				c0.2,1.3,0.1,3.2-0.3,5.6c-0.4,2.2-0.9,4-1.5,5.4C1643.3,164.2,1642.4,164.9,1641.3,164.9z"/>
			<path d="M1641.6,164.9c-1.1,0-1.7-0.7-2-2c-0.2-1.3-0.2-3.2,0.2-5.6c0.5-2.3,1-4.1,1.6-5.5c0.6-1.4,1.4-2,2.5-2L1641.6,164.9z
				 M1641.6,164.9l2.4-15h24.4l-4.3,1.5c-0.1-2.4,0.1-5.8,0.5-10.2c0.4-4.4,1.1-9.5,1.9-15.2c0.8-5.8,1.8-11.8,2.9-18.2
				c1.1-6.4,2.2-12.7,3.3-19c1.1-6.3,2.2-12.3,3.2-17.9c1-5.7,1.9-10.6,2.6-14.8l2.6,6.6l-9.7-11.4c2.4-2,5.2-3.6,8.4-4.7
				c3.1-1.1,6-1.7,8.5-1.7c2.5,0,4.5,0.6,5.7,1.7c1.3,1.2,1.9,3,1.9,5.6c0,2.5-0.5,6.4-1.5,11.7c-1,5.3-2.4,11.8-4,19.6
				c-1.6,7.8-3.3,16.5-4.9,26.3l-1.5-4.1c5.4-9.7,12.8-17.4,22.3-23c9.5-5.6,20.7-8.4,33.7-8.4c10.2,0,19,1.7,26.5,5.1
				c7.5,3.4,13.3,8.3,17.3,14.6c4.1,6.3,6.1,13.8,6.1,22.5c0,7-1.3,13.5-4,19.4c-2.6,5.9-6.3,11-11.1,15.3
				c-4.8,4.3-10.3,7.7-16.7,10.1c-6.4,2.4-13.4,3.6-21.1,3.6H1641.6z M1679.4,152.3l-4.1-2.4h61.9c7.4,0,13.9-1.4,19.4-4.4
				c5.5-2.9,9.7-6.9,12.8-11.9c3-5.1,4.6-10.7,4.6-17c0-4.4-0.8-8.3-2.3-11.6c-1.5-3.4-3.7-6.2-6.6-8.5c-2.9-2.3-6.4-4.1-10.6-5.3
				c-4.2-1.2-8.9-1.8-14.3-1.8c-8.9,0-16.7,1.4-23.4,4.1c-6.7,2.7-12.3,6.3-17,10.8c-4.7,4.5-8.5,9.5-11.5,15
				c-3,5.5-5.2,11.1-6.5,16.8C1680.2,141.8,1679.5,147.2,1679.4,152.3z"/>
		</g>
		<g>
			<path d="M1312.4,489.8c-2.2,0-3.9-0.3-5.2-0.8c-1.3-0.5-2.2-1.2-2.7-2c-0.5-0.8-0.8-1.6-0.8-2.4c2.8,0,5.3-0.2,7.3-0.6
				c2-0.4,3.8-1.2,5.2-2.2c1.5-1.1,2.7-2.6,3.8-4.6c1.1-2,2-4.5,2.9-7.6c0.8-3.1,1.7-6.8,2.5-11.3c0.4-2.2,0.8-4.4,1.2-6.7
				c0.4-2.3,0.8-4.6,1.1-7c0.4-2.3,0.7-4.6,1-6.7c0.3-2.2,0.6-4.1,0.8-5.9c0.3-1.8,0.5-3.3,0.7-4.5l0.8,3c-0.6-0.4-1.6-0.9-3-1.5
				c-1.4-0.6-3.1-0.9-5-0.9c-2,0-3.9,0.4-5.8,1.3c-1.9,0.9-3.5,2.2-4.9,3.9c-1.4,1.7-2.6,3.8-3.4,6.2c-0.8,2.4-1.2,5.2-1.2,8.3
				c0,2.7,0.3,4.9,1,6.5c0.7,1.6,1.7,2.7,3.1,3.4c1.3,0.7,3,1,4.9,1h10.3v7.1h-10.6c-5.4,0-9.5-1.5-12.3-4.6
				c-2.8-3.1-4.2-7.5-4.2-13.4c0-3.8,0.6-7.4,1.7-10.6c1.1-3.2,2.7-6.1,4.8-8.5s4.5-4.3,7.3-5.7c2.8-1.3,5.9-2,9.3-2
				c2.1,0,4,0.2,5.6,0.7c1.7,0.5,3.1,1.1,4.3,1.8c1.2,0.7,2.2,1.4,3,2.1c0.8,0.7,1.3,1.3,1.7,1.8c0,0.3-0.1,1.4-0.3,3.3
				c-0.2,1.9-0.6,4.3-1,7.3c-0.4,2.9-0.9,6.1-1.4,9.5c-0.5,3.4-1,6.8-1.6,10.1c-0.6,3.6-1.3,7-2,10.2c-0.7,3.2-1.6,6.2-2.7,8.9
				c-1,2.7-2.3,5-3.8,7c-1.5,2-3.2,3.5-5.3,4.6C1317.7,489.3,1315.3,489.8,1312.4,489.8z"/>
			<path d="M1349.7,465.7c-1.4,0-2.6-0.5-3.5-1.5c-0.9-1-1.4-2.1-1.4-3.4c0-1.1,0.2-2.1,0.7-3s1.2-1.6,2-2.2c0.9-0.5,1.9-0.8,3-0.8
				c1.4,0,2.6,0.5,3.5,1.4c0.9,0.9,1.4,2.1,1.4,3.5c0,1-0.3,2-0.8,2.9c-0.5,0.9-1.2,1.6-2.1,2.2
				C1351.8,465.4,1350.8,465.7,1349.7,465.7z"/>
			<path d="M1382.9,483.6c-3.1,0-5.8-0.5-8.3-1.4c-2.5-0.9-4.7-2.3-6.5-4.1c-1.8-1.8-3.2-3.9-4.2-6.4c-1-2.5-1.5-5.3-1.5-8.3
				c0-2.8,0.4-5.4,1.1-7.6s1.7-4,3-5.2c1.2-1.3,2.5-1.9,3.7-1.9c1,0,2,0.3,3,0.9c1,0.6,1.6,1.2,1.9,1.7c-0.7,0.6-1.5,1.5-2.3,2.7
				c-0.8,1.2-1.5,2.6-2,4.2c-0.6,1.6-0.8,3.4-0.8,5.4c0,1.5,0.2,3,0.6,4.5c0.4,1.5,1.1,2.9,2,4.2c1,1.3,2.3,2.3,4,3.1
				c1.7,0.8,3.8,1.2,6.2,1.2c3.2,0,6-0.7,8.4-2c2.4-1.3,4.4-3.1,6-5.4c1.6-2.3,3-4.9,4-7.9c1-3,1.7-6.1,2.2-9.5
				c0.4-3.3,0.7-6.7,0.7-10c0-1.3,0-2.7-0.1-4s-0.2-2.6-0.3-3.7c-0.1-1.1-0.3-1.9-0.5-2.4c1-0.6,1.9-1,2.8-1.4
				c0.9-0.4,1.8-0.5,2.6-0.5c1.3,0,2.3,0.4,2.8,1.2c0.5,0.8,0.8,2,0.8,3.7c0,1.5-0.2,3.2-0.5,5c-0.3,1.8-0.7,3.7-1.1,5.6
				c-0.4,1.9-0.6,3.7-0.6,5.4c0,2.6,0.5,4.5,1.6,5.9c1.1,1.4,2.7,2.1,4.9,2.1h8.5l-2.4,2.5v-2.6c0-1.2,0.2-2.8,0.5-4.7
				c0.3-1.9,0.8-3.9,1.2-6.1c0.5-2.2,0.9-4.3,1.2-6.4c0.3-2.1,0.5-4,0.5-5.7c0-1-0.1-2-0.2-2.9c-0.1-0.9-0.3-1.8-0.6-2.5
				c0.9-0.6,1.9-1,2.9-1.4c1-0.4,1.9-0.5,2.8-0.5c1.2,0,2.2,0.4,2.7,1.2c0.6,0.8,0.9,2,0.9,3.5c0,1.7-0.2,3.5-0.7,5.6
				c-0.5,2.1-0.9,4.1-1.4,6.2c-0.5,2.1-0.7,4.1-0.7,5.9c0,2.5,0.6,4.4,1.7,5.8c1.2,1.4,2.8,2.1,4.9,2.1h8.5l-2.2,2.5v-2.6
				c0-1,0.1-2.3,0.4-3.8c0.3-1.6,0.6-3.3,1-5.1c0.4-1.8,0.8-3.7,1.2-5.7c0.4-1.9,0.7-3.8,1-5.6c0.3-1.8,0.4-3.3,0.4-4.7
				c0-1-0.1-2-0.2-2.9c-0.1-0.9-0.3-1.7-0.6-2.4c1-0.6,1.9-1,2.9-1.4c1-0.4,1.9-0.5,2.8-0.5c1.2,0,2.2,0.4,2.7,1.2
				c0.6,0.8,0.9,1.9,0.9,3.3c0,1.4-0.2,3.3-0.7,5.5c-0.4,2.2-1,4.7-1.6,7.5c-0.6,2.7-1.1,5.5-1.6,8.4s-0.7,5.5-0.8,8.1l-3.4,5.5
				h-13.6c-1.8,0-3.2-0.5-4.2-1.5c-1-1-1.7-2.3-2.1-3.9l2.2,1.7h-2.2l-2.4,3.7h-14.6c-1.7,0-3.1-0.5-4.1-1.5c-1-1-1.7-2.3-2.1-3.9
				l3.8,3.8h-3c-1,2.8-2.3,5.4-3.8,7.8c-1.5,2.4-3.3,4.4-5.2,6.2c-2,1.7-4.3,3.1-6.8,4C1388.8,483.2,1386,483.6,1382.9,483.6z
				 M1425.8,419.9c-1.3,0-2.3-0.3-3.1-1c-0.8-0.7-1.2-1.6-1.2-2.7c0-1.7,0.6-3,1.7-4c1.1-1,2.5-1.6,4.2-1.6c1.3,0,2.4,0.3,3.2,1
				c0.8,0.7,1.2,1.6,1.2,2.8c0,1.6-0.6,2.9-1.7,4C1429,419.4,1427.6,419.9,1425.8,419.9z M1433,409.7c-1.2,0-2.1-0.3-2.8-0.9
				c-0.7-0.6-1.1-1.4-1.1-2.5c0-1.5,0.5-2.7,1.5-3.7c1-0.9,2.3-1.4,3.9-1.4c1.2,0,2.2,0.3,2.9,1c0.7,0.6,1.1,1.5,1.1,2.5
				c0,1.5-0.5,2.7-1.5,3.7S1434.7,409.7,1433,409.7z M1437.1,419.9c-1.3,0-2.3-0.3-3.1-1c-0.8-0.7-1.2-1.6-1.2-2.7
				c0-1.7,0.6-3,1.7-4c1.1-1,2.5-1.6,4.2-1.6c1.3,0,2.4,0.3,3.2,1s1.1,1.6,1.1,2.8c0,1.6-0.5,2.9-1.6,4
				C1440.3,419.4,1438.9,419.9,1437.1,419.9z"/>
			<path d="M1472.5,465.7c-1.4,0-2.6-0.5-3.5-1.5c-0.9-1-1.4-2.1-1.4-3.4c0-1.1,0.2-2.1,0.7-3s1.2-1.6,2-2.2c0.9-0.5,1.9-0.8,3-0.8
				c1.4,0,2.6,0.5,3.5,1.4c0.9,0.9,1.4,2.1,1.4,3.5c0,1-0.3,2-0.8,2.9c-0.5,0.9-1.2,1.6-2.1,2.2
				C1474.5,465.4,1473.6,465.7,1472.5,465.7z"/>
			<path d="M1505.6,483.6c-3.1,0-5.8-0.5-8.3-1.4c-2.5-0.9-4.7-2.3-6.5-4.1c-1.8-1.8-3.2-3.9-4.2-6.4c-1-2.5-1.5-5.3-1.5-8.3
				c0-2.8,0.4-5.4,1.1-7.6s1.7-4,3-5.2c1.2-1.3,2.5-1.9,3.7-1.9c1,0,2,0.3,3,0.9c1,0.6,1.6,1.2,1.9,1.7c-0.7,0.6-1.5,1.5-2.3,2.7
				c-0.8,1.2-1.5,2.6-2,4.2c-0.6,1.6-0.8,3.4-0.8,5.4c0,1.5,0.2,3,0.6,4.5c0.4,1.5,1.1,2.9,2,4.2c1,1.3,2.3,2.3,4,3.1
				c1.7,0.8,3.8,1.2,6.2,1.2c3.2,0,6-0.7,8.4-2c2.4-1.3,4.4-3.1,6-5.4c1.6-2.3,3-4.9,4-7.9c1-3,1.7-6.1,2.2-9.5
				c0.4-3.3,0.7-6.7,0.7-10c0-1.3,0-2.7-0.1-4s-0.2-2.6-0.3-3.7c-0.1-1.1-0.3-1.9-0.5-2.4c1-0.6,1.9-1,2.8-1.4
				c0.9-0.4,1.8-0.5,2.6-0.5c1.3,0,2.3,0.4,2.8,1.2c0.5,0.8,0.8,2,0.8,3.7c0,1.5-0.2,3.2-0.5,5c-0.3,1.8-0.7,3.7-1.1,5.6
				c-0.4,1.9-0.6,3.7-0.6,5.4c0,2.6,0.5,4.5,1.6,5.9c1.1,1.4,2.7,2.1,4.9,2.1h8.5l-2.4,2.5v-2.6c0-1.2,0.2-2.8,0.5-4.7
				c0.3-1.9,0.8-3.9,1.2-6.1c0.5-2.2,0.9-4.3,1.2-6.4c0.3-2.1,0.5-4,0.5-5.7c0-1-0.1-2-0.2-2.9c-0.1-0.9-0.3-1.8-0.6-2.5
				c0.9-0.6,1.9-1,2.9-1.4c1-0.4,1.9-0.5,2.8-0.5c1.2,0,2.2,0.4,2.7,1.2c0.6,0.8,0.9,2,0.9,3.5c0,1.7-0.2,3.5-0.7,5.6
				c-0.5,2.1-0.9,4.1-1.4,6.2c-0.5,2.1-0.7,4.1-0.7,5.9c0,2.5,0.6,4.4,1.7,5.8c1.2,1.4,2.8,2.1,4.9,2.1h8.5l-2.2,2.5v-2.6
				c0-1,0.1-2.3,0.4-3.8c0.3-1.6,0.6-3.3,1-5.1c0.4-1.8,0.8-3.7,1.2-5.7c0.4-1.9,0.7-3.8,1-5.6c0.3-1.8,0.4-3.3,0.4-4.7
				c0-1-0.1-2-0.2-2.9c-0.1-0.9-0.3-1.7-0.6-2.4c1-0.6,1.9-1,2.9-1.4c1-0.4,1.9-0.5,2.8-0.5c1.2,0,2.2,0.4,2.7,1.2
				c0.6,0.8,0.9,1.9,0.9,3.3c0,1.4-0.2,3.3-0.7,5.5c-0.4,2.2-1,4.7-1.6,7.5c-0.6,2.7-1.1,5.5-1.6,8.4s-0.7,5.5-0.8,8.1l-3.4,5.5
				h-13.6c-1.8,0-3.2-0.5-4.2-1.5c-1-1-1.7-2.3-2.1-3.9l2.2,1.7h-2.2l-2.4,3.7h-14.6c-1.7,0-3.1-0.5-4.1-1.5c-1-1-1.7-2.3-2.1-3.9
				l3.8,3.8h-3c-1,2.8-2.3,5.4-3.8,7.8c-1.5,2.4-3.3,4.4-5.2,6.2c-2,1.7-4.3,3.1-6.8,4C1511.5,483.2,1508.7,483.6,1505.6,483.6z
				 M1548.6,419.9c-1.3,0-2.3-0.3-3.1-1c-0.8-0.7-1.2-1.6-1.2-2.7c0-1.7,0.6-3,1.7-4c1.1-1,2.5-1.6,4.2-1.6c1.3,0,2.4,0.3,3.2,1
				c0.8,0.7,1.2,1.6,1.2,2.8c0,1.6-0.6,2.9-1.7,4C1551.8,419.4,1550.3,419.9,1548.6,419.9z M1555.8,409.7c-1.2,0-2.1-0.3-2.8-0.9
				c-0.7-0.6-1.1-1.4-1.1-2.5c0-1.5,0.5-2.7,1.5-3.7c1-0.9,2.3-1.4,3.9-1.4c1.2,0,2.2,0.3,2.9,1c0.7,0.6,1.1,1.5,1.1,2.5
				c0,1.5-0.5,2.7-1.5,3.7S1557.4,409.7,1555.8,409.7z M1559.9,419.9c-1.3,0-2.3-0.3-3.1-1c-0.8-0.7-1.2-1.6-1.2-2.7
				c0-1.7,0.6-3,1.7-4c1.1-1,2.5-1.6,4.2-1.6c1.3,0,2.4,0.3,3.2,1s1.1,1.6,1.1,2.8c0,1.6-0.5,2.9-1.6,4
				C1563.1,419.4,1561.7,419.9,1559.9,419.9z"/>
			<path d="M1606.6,489.9c-1,0-1.9-0.2-2.6-0.5s-1.4-0.8-2-1.5c0.2-0.2,0.5-0.5,0.9-0.9c0.4-0.4,0.9-0.9,1.4-1.6
				c0.5-0.7,1-1.8,1.5-3.2c0.5-1.3,0.9-2.7,1.2-4.2c0.3-1.5,0.6-3,0.9-4.4c0.3-1.4,0.5-2.6,0.6-3.5c0.5-2.6,1.1-4.7,1.9-6.3
				c0.8-1.6,1.9-2.8,3.2-3.6c1.3-0.8,3-1.4,4.9-1.7l-2.6,3.3l5.1-32.8c1-1.7,2.3-3.2,3.9-4.4s3.5-2.1,5.6-2.7
				c2.1-0.6,4.3-0.9,6.6-0.9c3.5,0,6.4,0.7,8.9,2.1c2.5,1.4,4.3,3.4,5.6,6c1.3,2.6,1.9,5.8,1.9,9.5c0,3.6-0.6,7.2-1.7,10.7
				c-1.2,3.5-2.8,6.7-4.8,9.5c-2.1,2.9-4.5,5.2-7.3,6.9h-18.1c-1.5,0-2.6,0.4-3.5,1.2c-0.8,0.8-1.4,2-1.7,3.5l-2,9.9
				c-0.4,1.8-0.9,3.5-1.4,5c-0.5,1.5-1.2,2.6-2.2,3.4C1609.8,489.5,1608.4,489.9,1606.6,489.9z M1623.6,461l-2-2.4h17.8l-3.2,0.5
				c1.3-0.8,2.7-2.1,4.2-4c1.5-1.9,2.8-4.3,3.8-7.1c1.1-2.8,1.6-6,1.6-9.5c0-3.3-0.6-5.8-1.9-7.6c-1.2-1.8-3.5-2.7-6.8-2.7
				c-2.1,0-4.1,0.4-5.9,1.2c-1.8,0.8-3,1.8-3.6,2.9l1.1-3.3L1623.6,461z"/>
			<path d="M1667.4,465.7c-1.4,0-2.6-0.5-3.5-1.5c-0.9-1-1.4-2.1-1.4-3.4c0-1.1,0.2-2.1,0.7-3s1.2-1.6,2-2.2c0.9-0.5,1.9-0.8,3-0.8
				c1.4,0,2.6,0.5,3.5,1.4c0.9,0.9,1.4,2.1,1.4,3.5c0,1-0.3,2-0.8,2.9c-0.5,0.9-1.2,1.6-2.1,2.2
				C1669.4,465.4,1668.4,465.7,1667.4,465.7z"/>
			<path d="M1676.1,489.9c-1,0-1.9-0.2-2.6-0.5s-1.4-0.8-2-1.5c0.2-0.2,0.5-0.5,0.9-0.9c0.4-0.4,0.9-0.9,1.4-1.6
				c0.5-0.7,1-1.8,1.5-3.2c0.5-1.3,0.9-2.7,1.2-4.2c0.3-1.5,0.6-3,0.9-4.4c0.3-1.4,0.5-2.6,0.6-3.5c0.5-2.6,1.1-4.7,1.9-6.3
				c0.8-1.6,1.9-2.8,3.2-3.6c1.3-0.8,3-1.4,4.9-1.7l-2.6,3.3l5.1-32.8c1-1.7,2.3-3.2,3.9-4.4s3.5-2.1,5.6-2.7
				c2.1-0.6,4.3-0.9,6.6-0.9c3.5,0,6.4,0.7,8.9,2.1c2.5,1.4,4.3,3.4,5.6,6c1.3,2.6,1.9,5.8,1.9,9.5c0,3.6-0.6,7.2-1.7,10.7
				c-1.2,3.5-2.8,6.7-4.8,9.5c-2.1,2.9-4.5,5.2-7.3,6.9H1691c-1.5,0-2.6,0.4-3.5,1.2c-0.8,0.8-1.4,2-1.7,3.5l-2,9.9
				c-0.4,1.8-0.9,3.5-1.4,5c-0.5,1.5-1.2,2.6-2.2,3.4C1679.3,489.5,1677.9,489.9,1676.1,489.9z M1693.1,461l-2-2.4h17.8l-3.2,0.5
				c1.3-0.8,2.7-2.1,4.2-4c1.5-1.9,2.8-4.3,3.8-7.1c1.1-2.8,1.6-6,1.6-9.5c0-3.3-0.6-5.8-1.9-7.6c-1.2-1.8-3.5-2.7-6.8-2.7
				c-2.1,0-4.1,0.4-5.9,1.2c-1.8,0.8-3,1.8-3.6,2.9l1.1-3.3L1693.1,461z"/>
			<path d="M1736.9,465.7c-1.4,0-2.6-0.5-3.5-1.5c-0.9-1-1.4-2.1-1.4-3.4c0-1.1,0.2-2.1,0.7-3s1.2-1.6,2-2.2c0.9-0.5,1.9-0.8,3-0.8
				c1.4,0,2.6,0.5,3.5,1.4c0.9,0.9,1.4,2.1,1.4,3.5c0,1-0.3,2-0.8,2.9c-0.5,0.9-1.2,1.6-2.1,2.2
				C1738.9,465.4,1737.9,465.7,1736.9,465.7z"/>
			<path d="M1758.5,465.7c-3.5,0-6.1-0.5-7.8-1.4s-2.5-2.4-2.5-4.4c0-0.6,0.1-1.1,0.2-1.7c0.1-0.6,0.2-1,0.4-1.4
				c0.9,0.4,2.1,0.8,3.5,1.2s2.8,0.6,4.1,0.6h20.3l-2.2,1.2c0-1.3,0.1-2.9,0.4-4.7c0.3-1.8,0.7-3.7,1.1-5.7c0.4-2,0.8-3.9,1.2-5.9
				c0.3-1.9,0.5-3.7,0.5-5.3c0-3.6-0.9-6.3-2.7-8c-1.8-1.7-4-2.6-6.6-2.6c-2.8,0-5.1,0.9-6.8,2.8c-1.8,1.8-2.8,4.4-3,7.6
				c-1.3,0-2.5-0.2-3.5-0.5c-1-0.3-1.9-0.8-2.5-1.6c-0.6-0.8-0.9-1.8-0.9-3.1c0-2.1,0.7-4.1,2.2-5.9s3.4-3.4,5.9-4.6
				c2.5-1.2,5.3-1.8,8.5-1.8c3.5,0,6.5,0.8,9.1,2.3c2.6,1.5,4.5,3.6,5.9,6.2c1.4,2.6,2.1,5.7,2.1,9.2c0,1.9-0.2,4-0.6,6.1
				c-0.4,2.1-0.8,4.1-1.2,6.1c-0.4,2-0.8,3.8-1.1,5.4c-0.3,1.6-0.5,2.9-0.4,3.8l-3.3,6H1758.5z M1770.2,415c-1.3,0-2.4-0.3-3.2-1
				c-0.8-0.7-1.2-1.6-1.2-2.7c0-1.7,0.6-3,1.7-4c1.1-1,2.5-1.6,4.2-1.6c1.3,0,2.4,0.3,3.2,1c0.8,0.7,1.2,1.6,1.2,2.8
				c0,1.6-0.5,2.9-1.6,4C1773.4,414.5,1772,415,1770.2,415z"/>
		</g>
		<g>
			<path d="M557.5,473.1v-60.3h12v50.1h29.9v10.2H557.5z"/>
			<path d="M607.9,473.1v-11.7h11.4v11.7H607.9z"/>
			<path d="M631.4,473.1v-60.3h12v50.1h29.9v10.2H631.4z"/>
			<path d="M681.8,473.1v-11.7h11.4v11.7H681.8z"/>
			<path d="M743.1,450.7l11.7,3.8c-1.8,6.6-4.8,11.6-8.9,14.8c-4.2,3.2-9.4,4.8-15.8,4.8c-7.9,0-14.4-2.8-19.5-8.3
				c-5.1-5.5-7.6-13.1-7.6-22.6c0-10.1,2.6-18,7.7-23.6c5.1-5.6,11.8-8.4,20.2-8.4c7.3,0,13.2,2.2,17.8,6.6
				c2.7,2.6,4.7,6.3,6.1,11.2l-11.9,2.9c-0.7-3.2-2.2-5.6-4.4-7.5c-2.2-1.8-4.9-2.7-8.1-2.7c-4.4,0-8,1.6-10.7,4.9
				c-2.7,3.2-4.1,8.5-4.1,15.7c0,7.7,1.4,13.2,4.1,16.4c2.7,3.3,6.2,4.9,10.6,4.9c3.2,0,5.9-1,8.2-3.1
				C740.4,458.4,742.1,455.2,743.1,450.7z"/>
			<path d="M785.1,453.3l11.7-1.2c0.7,4,2.1,7,4.3,8.8s5.1,2.8,8.7,2.8c3.9,0,6.8-0.8,8.8-2.5c2-1.7,2.9-3.6,2.9-5.9
				c0-1.4-0.4-2.7-1.2-3.7c-0.8-1-2.3-1.9-4.3-2.6c-1.4-0.5-4.6-1.4-9.6-2.7c-6.4-1.6-11-3.6-13.6-6c-3.7-3.3-5.5-7.4-5.5-12.2
				c0-3.1,0.9-6,2.6-8.7c1.7-2.7,4.2-4.8,7.4-6.2c3.2-1.4,7.1-2.1,11.7-2.1c7.5,0,13.1,1.7,16.9,5c3.8,3.3,5.8,7.8,6,13.4l-12,0.5
				c-0.5-3.1-1.6-5.4-3.3-6.7c-1.7-1.4-4.2-2.1-7.6-2.1c-3.5,0-6.2,0.7-8.2,2.2c-1.3,0.9-1.9,2.2-1.9,3.8c0,1.4,0.6,2.7,1.8,3.7
				c1.5,1.3,5.2,2.7,11,4.1c5.8,1.4,10.2,2.9,13,4.4c2.8,1.5,5,3.6,6.6,6.2s2.4,5.8,2.4,9.7c0,3.5-0.9,6.8-2.8,9.8
				c-1.9,3-4.6,5.3-8,6.8c-3.5,1.5-7.8,2.2-13,2.2c-7.5,0-13.3-1.8-17.3-5.3C788.3,465.3,785.9,460.1,785.1,453.3z"/>
			<path d="M843.6,473.1v-11.7H855v11.7H843.6z"/>
			<path d="M866.8,473.1v-60.8h19.3c7.3,0,12.1,0.3,14.3,0.9c3.4,0.9,6.3,2.9,8.6,6c2.3,3.1,3.5,7,3.5,11.8c0,3.7-0.7,6.9-2,9.4
				c-1.3,2.5-3,4.5-5.1,6c-2,1.5-4.1,2.4-6.2,2.9c-2.9,0.6-7,0.9-12.5,0.9h-7.8v22.9H866.8z M878.8,422.5v17.3h6.6
				c4.7,0,7.9-0.3,9.5-1c1.6-0.6,2.8-1.6,3.8-3c0.9-1.4,1.4-2.9,1.4-4.7c0-2.2-0.6-4-1.9-5.5s-2.9-2.3-4.8-2.7
				c-1.4-0.3-4.3-0.4-8.7-0.4H878.8z"/>
			<path d="M922.2,473.1v-11.7h11.4v11.7H922.2z"/>
			<path d="M983.5,450.7l11.7,3.8c-1.8,6.6-4.8,11.6-8.9,14.8c-4.2,3.2-9.4,4.8-15.8,4.8c-7.9,0-14.4-2.8-19.5-8.3
				c-5.1-5.5-7.6-13.1-7.6-22.6c0-10.1,2.6-18,7.7-23.6s11.8-8.4,20.2-8.4c7.3,0,13.2,2.2,17.8,6.6c2.7,2.6,4.7,6.3,6.1,11.2
				l-11.9,2.9c-0.7-3.2-2.2-5.6-4.4-7.5c-2.2-1.8-4.9-2.7-8.1-2.7c-4.4,0-8,1.6-10.7,4.9c-2.7,3.2-4.1,8.5-4.1,15.7
				c0,7.7,1.4,13.2,4.1,16.4c2.7,3.3,6.2,4.9,10.6,4.9c3.2,0,5.9-1,8.2-3.1C980.8,458.4,982.5,455.2,983.5,450.7z"/>
		</g>
		<g>
			<path d="M565.5,341.3v-75.5h-26.4v-15.4h70.7v15.4h-26.3v75.5H565.5z"/>
			<path d="M634,295.6l-15.5-2.9c1.7-6.4,4.7-11.1,9-14.1c4.2-3.1,10.6-4.6,18.9-4.6c7.6,0,13.3,0.9,17,2.8c3.7,1.8,6.3,4.2,7.9,7
				c1.5,2.8,2.3,8,2.3,15.6l-0.2,20.3c0,5.8,0.3,10.1,0.8,12.8c0.5,2.8,1.6,5.7,3.1,8.8h-16.9c-0.4-1.2-1-2.9-1.6-5.1
				c-0.3-1-0.5-1.7-0.6-2c-2.9,2.9-6,5.1-9.3,6.5c-3.3,1.4-6.9,2.2-10.6,2.2c-6.6,0-11.9-1.8-15.7-5.5c-3.8-3.7-5.7-8.3-5.7-14
				c0-3.7,0.9-7,2.6-10c1.7-2.9,4.2-5.1,7.3-6.7c3.1-1.6,7.7-2.9,13.6-4.1c8-1.5,13.5-3,16.6-4.3v-1.7c0-3.3-0.8-5.7-2.4-7.2
				c-1.6-1.4-4.7-2.1-9.2-2.1c-3,0-5.4,0.6-7.1,1.8C636.4,290.4,635.1,292.5,634,295.6z M656.8,309.7c-2.2,0.7-5.6,1.6-10.4,2.7
				c-4.7,1-7.8,2-9.3,3c-2.2,1.6-3.3,3.7-3.3,6.1c0,2.4,0.9,4.5,2.7,6.3c1.8,1.8,4,2.7,6.8,2.7c3.1,0,6-1,8.8-3.1
				c2.1-1.6,3.4-3.5,4.1-5.8c0.4-1.5,0.7-4.3,0.7-8.5V309.7z"/>
			<path d="M689.1,275.5h15.7v9c5.6-7,12.3-10.5,20.1-10.5c4.1,0,7.7,0.9,10.7,2.6s5.5,4.4,7.5,7.9c2.8-3.5,5.9-6.1,9.2-7.9
				s6.8-2.6,10.5-2.6c4.7,0,8.7,1,12,2.9c3.3,2,5.7,4.8,7.3,8.7c1.2,2.8,1.8,7.4,1.8,13.6v42.1h-17.1v-37.6c0-6.5-0.6-10.7-1.8-12.7
				c-1.6-2.5-4-3.7-7.3-3.7c-2.4,0-4.6,0.7-6.7,2.2c-2.1,1.5-3.6,3.7-4.6,6.5c-0.9,2.9-1.4,7.4-1.4,13.6v31.6h-17.1v-36.1
				c0-6.4-0.3-10.5-0.9-12.4s-1.5-3.2-2.8-4.2s-3-1.4-5.2-1.4c-2.6,0-5,0.7-7.1,2.2c-2.1,1.4-3.6,3.5-4.5,6.3
				c-0.9,2.7-1.4,7.3-1.4,13.6v32h-17.1V275.5z"/>
			<path d="M797,307.5c0-5.8,1.4-11.4,4.2-16.8c2.8-5.4,6.7-9.5,11.9-12.4c5.1-2.9,10.8-4.3,17.1-4.3c9.8,0,17.7,3.2,24,9.7
				c6.2,6.5,9.3,14.6,9.3,24.5c0,10-3.1,18.2-9.4,24.8c-6.3,6.6-14.2,9.8-23.8,9.8c-5.9,0-11.5-1.4-16.9-4.1
				c-5.4-2.7-9.4-6.7-12.2-12C798.4,321.5,797,315,797,307.5z M814.5,308.4c0,6.5,1.5,11.5,4.6,15s6.8,5.2,11.2,5.2
				c4.5,0,8.2-1.7,11.2-5.2c3-3.5,4.5-8.5,4.5-15.1c0-6.4-1.5-11.4-4.5-14.9c-3-3.5-6.7-5.2-11.2-5.2c-4.5,0-8.2,1.7-11.2,5.2
				S814.5,301.9,814.5,308.4z"/>
			<path d="M919.3,341.3v-9.9c-2.3,3.5-5.4,6.3-9.3,8.3c-3.8,2-7.9,3-12.1,3c-4.3,0-8.2-1-11.7-2.9c-3.4-1.9-5.9-4.7-7.5-8.2
				c-1.5-3.5-2.3-8.4-2.3-14.6v-41.7h17.1v30.3c0,9.3,0.3,14.9,0.9,17c0.6,2.1,1.8,3.7,3.4,5c1.7,1.2,3.8,1.8,6.3,1.8
				c2.9,0,5.5-0.8,7.8-2.4s3.9-3.7,4.7-6.1c0.8-2.4,1.3-8.3,1.3-17.8v-27.8h17.1v65.9H919.3z"/>
			<path d="M969.8,250.4v33.4c5.5-6.6,12.1-9.9,19.7-9.9c3.9,0,7.5,0.7,10.6,2.2s5.5,3.4,7.1,5.7c1.6,2.3,2.7,4.9,3.3,7.7
				c0.6,2.8,0.9,7.2,0.9,13.1v38.6h-17.1v-34.8c0-6.9-0.3-11.3-1-13.1s-1.8-3.3-3.4-4.4c-1.6-1.1-3.7-1.6-6.2-1.6
				c-2.8,0-5.4,0.7-7.6,2.1s-3.9,3.5-4.9,6.4c-1,2.8-1.5,7-1.5,12.6v33h-17.1v-90.9H969.8z"/>
			<path d="M1063.4,341.3v-90.9h66v15.4h-48v20.2h44.7v15.3h-44.7V326h49.7v15.3H1063.4z"/>
			<path d="M1144.9,275.5h15.7v9c5.6-7,12.3-10.5,20.1-10.5c4.1,0,7.7,0.9,10.7,2.6s5.5,4.4,7.5,7.9c2.8-3.5,5.9-6.1,9.2-7.9
				c3.3-1.7,6.8-2.6,10.5-2.6c4.7,0,8.7,1,12,2.9c3.3,2,5.7,4.8,7.3,8.7c1.2,2.8,1.8,7.4,1.8,13.6v42.1h-17.1v-37.6
				c0-6.5-0.6-10.7-1.8-12.7c-1.6-2.5-4-3.7-7.3-3.7c-2.4,0-4.6,0.7-6.7,2.2s-3.6,3.7-4.6,6.5c-0.9,2.9-1.4,7.4-1.4,13.6v31.6h-17.1
				v-36.1c0-6.4-0.3-10.5-0.9-12.4c-0.6-1.9-1.5-3.2-2.8-4.2s-3-1.4-5.2-1.4c-2.6,0-5,0.7-7.1,2.2c-2.1,1.4-3.6,3.5-4.5,6.3
				c-0.9,2.7-1.4,7.3-1.4,13.6v32h-17.1V275.5z"/>
			<path d="M1256.3,275.5h15.9v9.7c2.1-3.3,4.9-6,8.4-8.1c3.5-2.1,7.4-3.1,11.7-3.1c7.5,0,13.8,3,19.1,9s7.8,14.3,7.8,25.1
				c0,11-2.6,19.5-7.9,25.6c-5.3,6.1-11.6,9.1-19.1,9.1c-3.6,0-6.8-0.7-9.7-2.2c-2.9-1.4-5.9-3.9-9.1-7.4v33.2h-17.1V275.5z
				 M1273.2,307.3c0,7.4,1.4,12.9,4.3,16.4c2.9,3.5,6.4,5.3,10.5,5.3c4,0,7.3-1.6,9.9-4.9c2.6-3.2,3.9-8.6,3.9-16
				c0-6.9-1.4-12-4.1-15.4s-6.1-5-10.1-5c-4.2,0-7.6,1.6-10.4,4.9C1274.5,296,1273.2,300.8,1273.2,307.3z"/>
			<path d="M1332.7,341.3v-90.9h17.1v90.9H1332.7z"/>
			<path d="M1363.3,307.5c0-5.8,1.4-11.4,4.2-16.8s6.7-9.5,11.9-12.4c5.1-2.9,10.8-4.3,17.1-4.3c9.8,0,17.7,3.2,24,9.7
				c6.2,6.5,9.3,14.6,9.3,24.5c0,10-3.1,18.2-9.4,24.8c-6.3,6.6-14.2,9.8-23.8,9.8c-5.9,0-11.5-1.4-16.9-4.1s-9.4-6.7-12.2-12
				C1364.7,321.5,1363.3,315,1363.3,307.5z M1380.8,308.4c0,6.5,1.5,11.5,4.6,15s6.8,5.2,11.2,5.2c4.5,0,8.2-1.7,11.2-5.2
				s4.5-8.5,4.5-15.1c0-6.4-1.5-11.4-4.5-14.9s-6.7-5.2-11.2-5.2c-4.5,0-8.2,1.7-11.2,5.2S1380.8,301.9,1380.8,308.4z"/>
			<path d="M1435.1,275.5h18.2l15.4,46.8l15.1-46.8h17.7l-22.8,63.4l-4.1,11.5c-1.5,3.8-2.9,6.8-4.3,8.8c-1.4,2-2.9,3.7-4.7,4.9
				c-1.8,1.3-3.9,2.2-6.5,2.9s-5.5,1.1-8.7,1.1c-3.3,0-6.5-0.4-9.7-1.1l-1.5-13.6c2.7,0.5,5.1,0.8,7.2,0.8c4,0,6.9-1.2,8.8-3.6
				s3.4-5.4,4.4-9.1L1435.1,275.5z"/>
			<path d="M1511,275.5h15.7v9c5.6-7,12.3-10.5,20.1-10.5c4.1,0,7.7,0.9,10.7,2.6s5.5,4.4,7.5,7.9c2.8-3.5,5.9-6.1,9.2-7.9
				c3.3-1.7,6.8-2.6,10.5-2.6c4.7,0,8.7,1,12,2.9c3.3,2,5.7,4.8,7.3,8.7c1.2,2.8,1.8,7.4,1.8,13.6v42.1h-17.1v-37.6
				c0-6.5-0.6-10.7-1.8-12.7c-1.6-2.5-4-3.7-7.3-3.7c-2.4,0-4.6,0.7-6.7,2.2s-3.6,3.7-4.6,6.5c-0.9,2.9-1.4,7.4-1.4,13.6v31.6H1550
				v-36.1c0-6.4-0.3-10.5-0.9-12.4c-0.6-1.9-1.5-3.2-2.8-4.2s-3-1.4-5.2-1.4c-2.6,0-5,0.7-7.1,2.2c-2.1,1.4-3.6,3.5-4.5,6.3
				c-0.9,2.7-1.4,7.3-1.4,13.6v32H1511V275.5z"/>
			<path d="M1660.2,320.4l17,2.9c-2.2,6.4-5.6,11.2-10.4,14.5c-4.7,3.3-10.6,5-17.7,5c-11.2,0-19.5-3.7-24.9-11.2
				c-4.2-6-6.4-13.6-6.4-22.7c0-10.9,2.8-19.5,8.4-25.6c5.6-6.2,12.6-9.3,21.2-9.3c9.6,0,17.2,3.2,22.7,9.7c5.5,6.5,8.2,16.4,8,29.7
				h-42.7c0.1,5.2,1.5,9.2,4.1,12.1s5.9,4.3,9.8,4.3c2.7,0,4.9-0.7,6.7-2.2S1659.3,323.7,1660.2,320.4z M1661.2,302.8
				c-0.1-5-1.4-8.9-3.8-11.5c-2.4-2.6-5.4-3.9-8.9-3.9c-3.7,0-6.8,1.4-9.2,4.2c-2.4,2.8-3.6,6.5-3.6,11.3H1661.2z"/>
			<path d="M1750.6,341.3h-17.1v-33.6c0-7.1-0.4-11.7-1.1-13.8s-1.9-3.7-3.6-4.9c-1.6-1.2-3.6-1.7-5.9-1.7c-3,0-5.6,0.8-8,2.5
				c-2.3,1.7-4,3.8-4.8,6.6c-0.9,2.7-1.3,7.8-1.3,15.1v29.8h-17.1v-65.9h15.8v9.7c5.6-7.4,12.7-11.2,21.2-11.2
				c3.8,0,7.2,0.7,10.3,2.1c3.1,1.4,5.5,3.2,7.1,5.3c1.6,2.1,2.7,4.6,3.3,7.3c0.6,2.7,0.9,6.6,0.9,11.7V341.3z"/>
			<path d="M1797.5,275.5v13.9h-11.7v26.5c0,5.4,0.1,8.5,0.3,9.4c0.2,0.9,0.7,1.6,1.5,2.2c0.8,0.6,1.7,0.9,2.9,0.9
				c1.6,0,3.9-0.6,6.9-1.7l1.5,13.5c-4,1.7-8.5,2.6-13.5,2.6c-3.1,0-5.8-0.5-8.3-1.6c-2.5-1.1-4.3-2.4-5.4-4.1
				c-1.2-1.7-2-3.9-2.4-6.8c-0.4-2-0.5-6.1-0.5-12.3v-28.7h-7.8v-13.9h7.8v-13.1l17.1-10.2v23.3H1797.5z"/>
		</g>
	</g>
</g>
</svg>
