<?xml version="1.0" encoding="utf-8"?>
<!-- Generator: Adobe Illustrator 26.0.1, SVG Export Plug-In . SVG Version: 6.00 Build 0)  -->
<svg version="1.1" id="Layer_1" xmlns="http://www.w3.org/2000/svg" xmlns:xlink="http://www.w3.org/1999/xlink" x="0px" y="0px"
	 viewBox="0 0 1800 550" style="enable-background:new 0 0 1800 550;" xml:space="preserve">
<style type="text/css">
	.st0{fill:#030303;}
	.st1{fill:#55BD59;}
	.st2{fill:#FB4523;}
	.st3{fill:#181917;}
	.st4{fill:#FCFCFC;}
</style>
<g>
	<path class="st0" d="M522.6,373.2c-11.6,18-26.8,29.8-48.1,32.2c-14.3,1.9-27.3-2.8-40.3-9.5c-10.6-5.2-21.3-9.9-33.3-11.8
		c-13.9-2.4-27.8-2.4-41.2,0.5c-6.5,1.4-13.4,2.8-19.9,3.8c-9.7,1.4-17.6-2.4-20.8-9.9c-0.9-2.8-0.9-5.7-0.9-8.5
		c0.5-3.8-0.5-7.1-4.2-9c-5.6-3.8-6-6.1-1.9-11.8c0.9-1.4,0-1.9-0.9-2.8c-6.9-4.3-7.4-7.1-3.2-14.2c2.3-3.8,1.9-6.6-1.9-9
		c-1.4-0.9-3.2-1.9-4.6-2.8c-4.6-2.4-6-6.6-3.7-11.3c1.4-3.3,3.7-5.7,6-8c5.6-6.1,10.6-12.8,13.9-20.3c2.3-5.7,2.8-11.8,3.7-18
		c2.3-17.5,11.1-31.2,25-42.1c18.1-13.7,37.5-24.6,56.9-35.9c25.9-15.1,52.3-29.3,76.8-46.8c8.8-6.1,17.6-12.8,23.6-22.2
		c7.4,9.5,6.9,22.7-0.5,33.6c-6.9,9.9-16.7,16.5-25.9,23.2c-21.8,15.1-44.9,28.4-67.6,42.1c-11.6,7.1-22.7,14.2-34.3,21.8
		c-14.8,9.9-21.8,24.6-24.1,42.1c-0.9,6.6-1.4,13.7-6.5,19.4c-1.4,1.9-3.2,3.3-5.1,4.7c-5.1,4.7-4.6,10.4,1.9,12.8
		c4.6,1.9,6,5.2,3.2,9.9c-1.9,3.3-1.9,5.2,1.4,7.6c1.9,0.9,2.3,2.4,1.4,4.7c-1.9,3.3-1.4,6.1,1.9,8c3.7,1.9,4.6,4.7,5.1,8.5
		c0,0.9,0,1.4,0.5,2.4c2.3,12.3,8.3,17,20.8,16.1c10.6-0.5,20.4-4.3,30.1-6.6c19.9-5.7,39.3-4.3,58.8,2.8c9.3,3.3,18.5,6.1,27.8,8
		c5.1,0.9,10.2,0.9,15.3,0.9C512.4,375.1,517.5,374.7,522.6,373.2z"/>
	<path class="st1" d="M64.3,304.7c1.4-9,5.6-15.6,12-20.8c6.5-5.2,14.3-7.6,22.2-8c13.9-0.9,27.8,0.9,41.2,3.3
		c11.1,1.9,22.2,3.8,33.8,4.7c19.9,1.4,32.4-9,37.5-29.8c3.7-16.1,8.3-31.7,14.8-46.8c9.7-21.3,25.9-36.4,44.9-48.2
		c26.8-16.5,55.1-30.7,81.9-46.3c22.7-13.2,45.4-26,67.1-40.7c19-12.8,38-25.5,54.6-41.1c9.7-9,18.1-19.9,21.3-27.9
		c4.6,4.7,6.5,14.7,4.2,22.7c-2.3,7.6-6.5,13.2-12,18.9c-13,13.7-28.2,25.5-43.5,35.9c-36.1,24.6-73.6,47.3-111.1,69.5
		c-18.1,10.4-35.6,21.3-52.8,32.6c-19,12.3-30.1,30.3-36.1,51.5c-4.2,13.7-6.9,27.9-12,41.6c-6.5,17-17.6,29.3-35.6,34
		c-8.8,2.4-18.1,2.4-26.8,0.9c-19.4-2.8-38.9-6.6-58.8-9C96.3,299.5,80.1,299,64.3,304.7z"/>
	<path class="st2" d="M0,338.2c5.1-10.9,13.4-18,24.5-21.3c14.3-4.3,28.2-1.9,42.1,1.9c30.1,8,58.3,21.3,86.1,35
		c25.9,12.8,51.8,27,76.8,42.1c11.6,7.1,23.6,14.2,33.3,24.1c10.2,10.9,12,25.1,5.1,38.3c-6.5,11.8-15.7,20.3-25.5,28.8
		c-5.6,5.2-11.6,9.9-16.2,16.1c-6,8.5-4.6,18,3.7,24.1c7.9,6.1,17.1,8.5,26.4,9.9c1.9,0.5,3.7,0.5,6.5,0.9
		c-10.6,7.6-22.2,9.5-34.3,8.5c-8.8-0.9-16.7-3.3-24.5-8c-15.7-9.9-19-29.8-6.9-44.4c6.5-8.5,14.8-14.7,23.1-20.8
		c6-4.3,11.6-9,16.7-14.7c7.4-8,7.4-15.1-0.5-23.2c-8.3-8-18.5-13.7-28.7-19.4c-41.2-24.1-83.8-44.9-127.3-63.4
		c-15.7-6.6-31.5-12.3-48.1-15.1c-8.8-1.4-18.1-1.9-26.8-0.5C3.2,338.2,1.9,338.2,0,338.2z"/>
	<path class="st3" d="M317.1,397.4c6.9,0.9,13-0.9,19-0.5c16.7,1.4,24.1,16.5,15.7,31.2c-4.2,7.1-9.7,12.3-16.2,17
		s-13.4,8-20.4,12.3c-3.2,1.9-6.5,4.3-9.3,7.1c-6,5.7-6.5,14.2-0.9,20.8c5.6,7.1,13.9,9,22.2,10.9c2.8,0.5,6,0.9,8.8,0.9
		c0.9,0,2.3,0,2.8,0.9s-0.9,1.9-1.4,2.4c-5.1,4.3-11.1,7.1-17.6,7.6c-12.5,0.9-24.1-1.9-33.8-9.9c-10.2-8-12.5-23.2-4.6-33.6
		c5.1-7.1,12-11.3,19-16.1c4.6-3.3,9.7-6.6,12.5-12.3c4.2-8,3.2-20.3-9.7-24.6c-7.4-2.4-15.3-2.4-22.7-3.3
		c-7.4-1.4-14.8-2.4-21.8-6.6c-7.9-4.7-10.6-12.3-7.4-21.3c0.5-0.9,0.5-1.9,0.9-2.8c1.4-4.3,0.5-6.1-2.8-8c-6.9-4.3-7.9-9-3.2-15.6
		c0.9-0.9,0.9-1.4-0.5-2.4c-6-4.7-6.5-9.5-1.9-15.6c0.5-0.9,1.4-1.4,1.9-2.4c0.9-1.9,1.4-3.8-1.4-4.3c-2.3-0.9-4.2-1.9-6.5-2.8
		c-5.6-2.8-6.9-7.6-4.2-13.7s7.9-9.9,12-14.7c9.7-9,14.3-20.3,15.7-33.6c1.4-13.7,5.1-26.5,10.6-38.8c9.3-19.4,23.1-33.6,40.7-44.9
		c29.6-18.4,59.7-35,89.3-53c23.6-14.2,47.2-27.9,69.4-43.5c13.9-9.9,27.3-19.9,38.4-33.1c4.2-4.7,7.4-9.9,8.8-16.5
		c0-0.9,0.5-1.4,0.9-1.9c0.9,0,0.9,0.9,1.4,1.4c10.2,11.8,10.6,25.1,0.5,37.8c-9.7,12.3-21.8,22.2-34.3,31.2
		c-24.1,17-49.5,32.2-74.5,47.8c-24.5,15.1-49.1,29.3-73.1,44.9c-9.7,6.1-19.4,12.8-27.3,21.8c-10.2,11.8-14.8,26-17.6,40.7
		c-1.4,6.6-1.9,13.2-2.8,19.9c-1.4,9-6.9,15.1-13,20.8c-2.3,1.9-4.2,4.3-6,6.6c-4.6,6.6-3.2,11.8,3.7,15.6c6,3.3,6.9,6.6,3.2,12.8
		c-0.5,0.5-0.5,0.9-0.9,1.4c-3.2,5.2-2.3,8,3.2,10.4c1.9,0.9,2.8,1.4,0.9,3.8c-4.6,5.2-4.2,7.6,1.4,10.9c5.1,3.3,4.6,7.6,3.7,12.3
		c-1.4,9.5,2.3,17.5,9.7,20.8c3.2,1.4,6.9,2.4,10.6,2.4C312,397.4,314.7,397.4,317.1,397.4z M335.6,499.5
		c-8.8-0.5-16.7-2.8-24.1-6.6c-12.5-7.1-16.2-22.2-2.8-32.2c5.1-4.3,11.1-7.1,16.7-10.4c9.7-5.7,19-11.8,25-22.2
		c4.6-8,4.2-19.4-1.9-24.6c-5.1-4.3-11.6-5.2-18.1-4.7c-8.3,0.5-16.7,0.9-25-0.5s-14.8-5.7-17.1-14.2c-0.9-3.8-1.4-7.6-0.5-11.3
		c0.9-5.2-0.5-8.5-5.1-11.3s-4.6-6.1-1.9-10.4c1.4-1.9,0.9-2.4-0.9-3.8c-4.6-3.3-5.1-6.1-2.3-11.3c4.6-8,4.6-8-2.8-12.8
		c-6.5-4.7-7.4-9.9-3.2-16.5c2.8-4.3,6.5-7.6,9.7-10.9c4.2-4.3,7.9-9.5,8.8-15.6s1.9-12.8,2.8-18.9c2.3-14.2,6-27.9,14.8-39.2
		c7.9-10.9,18.5-18.4,29.6-25.5c19.9-13.7,41.2-25.5,62-38.3c30.1-18.4,60.2-35.9,88.9-56.3c13-9.5,25.5-19.4,34.7-32.6
		c7.4-10.4,6.5-22.7-1.4-30.7c-1.9,5.2-5.1,9.9-8.8,14.2c-9.3,11.8-21.3,21.3-33.3,29.8c-27.3,20.3-56.9,36.9-86.1,54.4
		c-25.5,15.1-50.9,29.8-75.9,44.9c-12,7.6-23.1,16.1-31.5,27.4c-13,17-19.4,36.9-22.2,58.2c-1.4,11.8-5.6,22.7-14.3,31.2
		c-3.7,3.3-6.9,7.1-10.2,10.9c-6,7.1-5.6,14.2,4.2,17c7.9,2.4,7.9,4.3,3.2,10.9c-3.7,5.7-3.2,10.9,2.8,13.2c1.9,0.9,2.8,1.9,0.5,4.3
		c-4.6,4.3-4.2,9.5,0.9,12.8c5.6,3.8,6.5,6.1,4.2,12.3c-3.7,9.9-0.5,17,9.3,21.3c7.4,3.3,14.8,4.3,22.2,5.2
		c6.9,0.9,14.3,1.4,20.8,4.3c8.3,3.3,12,10.4,11.1,19.4c-0.9,7.6-5.6,12.8-11.1,17c-6.9,5.2-14.3,9.5-20.4,15.6
		c-10.6,11.3-8.8,27.4,4.6,35.5c5.6,3.8,11.6,6.1,18.5,7.1C317.5,506.6,327.2,506.1,335.6,499.5z"/>
	<path class="st4" d="M335.6,499.5c-8.3,6.6-17.6,7.1-27.3,6.1c-6.5-0.9-13-3.3-18.5-7.1c-13-8-14.8-24.1-4.6-35.5
		c6-6.6,13.4-10.4,20.4-15.6c5.6-4.3,10.2-9.5,11.1-17c1.4-9-2.8-16.1-11.1-19.4c-6.9-2.8-13.9-3.3-20.8-4.3
		c-7.9-0.9-15.3-1.9-22.2-5.2c-9.7-4.3-12.5-11.3-9.3-21.3c2.3-6.1,1.4-9-4.2-12.3c-5.1-3.3-6-9-0.9-12.8c2.3-2.4,1.4-3.3-0.5-4.3
		c-6-2.4-6.5-8-2.8-13.2c4.6-6.6,4.6-8.5-3.2-10.9c-9.7-2.8-10.2-9.9-4.2-17c3.2-3.8,6.9-7.6,10.2-10.9c8.8-8.5,13-18.9,14.3-31.2
		c2.8-21.3,8.8-41.1,22.2-58.2c8.8-11.3,19.4-19.9,31.5-27.4c25-15.6,50.9-29.8,75.9-44.9c29.2-17.5,58.8-34.5,86.1-54.4
		c12-9,24.1-18,33.3-29.8c3.2-4.3,6.5-9,8.8-14.2c8.3,8,8.8,20.3,1.4,30.7c-9.3,13.2-21.8,23.6-34.7,32.6
		c-28.7,20.3-59.2,37.8-88.9,56.3c-20.8,12.8-41.7,24.6-62,38.3c-10.6,7.1-21.3,14.7-29.6,25.5c-8.8,11.8-12.5,25.1-14.8,39.2
		c-0.9,6.1-1.9,12.8-2.8,18.9s-4.6,11.3-8.8,15.6c-3.2,3.3-6.9,6.6-9.7,10.9c-4.2,7.1-3.2,12.3,3.2,16.5c7.4,4.7,7.4,4.7,2.8,12.8
		c-2.8,4.7-2.3,8,2.3,11.3c1.4,0.9,1.9,1.9,0.9,3.8c-3.2,4.3-2.8,7.6,1.9,10.4c4.2,2.8,6,6.1,5.1,11.3c-0.9,3.8-0.5,7.6,0.5,11.3
		c2.3,8.5,8.8,12.8,17.1,14.2s16.7,0.9,25,0.5c6.5-0.5,13,0,18.1,4.7c6,5.2,6.5,16.5,1.9,24.6c-6,10.4-15.3,16.5-25,22.2
		c-5.6,3.3-11.6,6.1-16.7,10.4c-13,9.9-9.7,25.1,2.8,32.2C318.4,496.7,326.8,499,335.6,499.5z"/>
</g>
<g>
	<g>
		<g>
			<path d="M898.7,226.3c-14.6,0-27.1-2.2-36.5-8.2c-9.5-6.1-15.6-15.8-15.6-28.8c0-8.6,1.7-17.1,6.3-25.7l4.3,1.8
				c-2,6.1-3.1,11.5-3.1,16.2c0,9.9,5.6,18.4,14,23.5c8.7,5.2,20.5,6.8,33.8,6.8c12.4,0,26.5-1.6,39.1-4.7l-0.9-1.4
				c-3.4-5.7-3.7-11-3.7-16.2c0-8.1,2.3-17.3,9.6-25c5.5-5.8,12.2-9.9,16.1-9.9c3.8,0,8.6,4.4,12.4,11.8c2.6,4.9,4,9.9,4,15.1
				c0,9.8-2.9,17.4-7.1,24.8c4,1.2,9.5,1.9,16.6,1.9h3.4v13.6h-3.1c-10.3,0-18.3-1-31.8-5.7C940.2,222.3,915.9,226.3,898.7,226.3z
				 M972.8,189.6c0-3.8-1.5-7.4-2.6-9.6c-2.9-5.6-6.2-9.6-10.5-9.6c-8.3,0-16.4,9.9-18.3,17.8c1.5,6.2,6.1,12,15.2,14.8
				C963.9,201.2,972.8,194,972.8,189.6z M953.5,118c4.4,3.2,8.6,7,12.8,11.4c-2.3,3.8-5.2,7.3-8.8,10.4c-4.1-3.9-8.3-7.3-12.5-11
				C947.8,125,950.6,121.3,953.5,118z"/>
			<path d="M1034,208.3v13.6h-42.5c-5.8,0-7.4-4.3-7.4-7.1c0-2.6,1.7-6.5,7.4-6.5H1034z"/>
			<path d="M1036.4,208.3c8.2,0,16.7-3.3,18.3-9.4l3.1-11.5l7.3-5.3l0.6,0.7c-1.5,5.4-2.3,10-2.3,12.3c0,3.7,1,6.8,3.5,8.8
				c3.4,2.8,7.6,4.3,13.2,4.3h1.9v13.6h-2.4c-10.4,0-18.3-2.9-21.9-10.8h-0.4c-3.6,7.1-12,10.8-21.2,10.8h-2c-5.8,0-7.4-4.3-7.4-7.1
				c0-2.6,1.7-6.5,7.4-6.5H1036.4z M1048.4,264.4c-4.4-4.1-8.2-7.6-12.4-11.1c2.8-3.8,5.7-7.3,8.4-10.1c4.4,3.4,8,6.9,12.1,11.4
				C1053.5,258.8,1051.4,261.6,1048.4,264.4z M1068.9,263c-4.4-4.1-8.2-7.6-12.4-11.1c2.8-3.8,5.7-7.3,8.4-10.1
				c4.4,3.4,8,6.9,12.1,11.4C1074,257.4,1071.9,260.2,1068.9,263z"/>
			<path d="M1091.8,208.3l5.7-9.7c1.4-5.4,1.6-10.2,1.6-21.2c0-14.5-1.5-36.7-2.7-48.8c-0.3-3.3-0.6-7.1-0.6-10.4
				c0-4.8,3-8.2,8.3-12.2l0.7,0.7c0,6.2,3.1,13.8,9,23.3l-6.9,5.4c0.5,11.5,1,23,1,34.5c0,9.4-1.4,15.6-3.7,21.3h0.4
				c7.9-8,16.4-15.4,23.4-19.9c6-3.7,13.1-6.4,20-6.4c6.1,0,12,2.3,15.8,6c4.9,4.6,8,11.1,8,18.8c0,2-1.3,7.2-2.4,11.3
				c-5.3,18.4-42.4,21-63.5,21H1082c-5.8,0-7.4-4.3-7.4-7.1c0-2.6,1.7-6.5,7.4-6.5H1091.8z M1108.5,208.3c23.1,0,37.8-2.3,49-8
				c3.1-1.5,5.2-3.3,6.4-4.9c-0.1-7.6-8.8-16.4-20.4-16.4c-13.7,0-29,11.2-44.3,29.2H1108.5z M1135.8,128.8c4.4,3.2,8.6,7,12.8,11.4
				c-2.3,3.8-5.2,7.3-8.8,10.4c-4.1-3.9-8.3-7.3-12.5-11C1130.1,135.8,1132.9,132.1,1135.8,128.8z"/>
			<path d="M1253.7,208.3v13.6h-8.8c-0.5,6.7-3.6,15.1-8.1,21.8c-8.2,12.4-20,18.2-25.6,18.2c-9.7,0-20.4-4.5-30.6-10.7l1.8-3.5
				c4.1,2.2,9.3,3.8,15.6,3.8c10.7,0,20.4-5.3,29.6-14.7c5.1-5.2,8.6-9.5,10-14.9h-5.2c-21.7,0-32.8-6.9-32.8-21.8
				c0-7.2,2.3-12.8,5.4-17.1c4-5.8,9.7-10.2,16.4-10.2c9.8,0,19.9,13.7,22.9,35.5H1253.7z M1229.6,192.8c-3.4-3.8-7.3-6-11.3-6
				c-6,0-12,5.1-12,9.4c0,5.4,5,8.6,11.6,10.5c5.8,1.6,12.2,1.6,19.1,1.6C1235.9,202.4,1233.2,196.7,1229.6,192.8z"/>
			<path d="M1256.1,208.3c8.2,0,16.7-3.3,18.3-9.4l3.1-11.5l7.3-5.3l0.6,0.7c-1.5,5.4-2.3,10-2.3,12.3c0,3.7,1,6.8,3.5,8.8
				c3.4,2.8,7.6,4.3,13.2,4.3h1.9v13.6h-2.4c-10.4,0-18.3-2.9-21.9-10.8h-0.4c-3.6,7.1-12,10.8-21.2,10.8h-2c-5.8,0-7.4-4.3-7.4-7.1
				c0-2.6,1.7-6.5,7.4-6.5H1256.1z M1267.8,168c-4.4-4.1-8.2-7.6-12.4-11.1c2.8-3.8,5.7-7.3,8.4-10.1c4.4,3.4,8,6.9,12.1,11.4
				C1272.9,162.5,1270.8,165.2,1267.8,168z M1288.3,166.6c-4.4-4.1-8.2-7.6-12.4-11.1c2.8-3.8,5.7-7.3,8.4-10.1
				c4.4,3.4,8,6.9,12.1,11.4C1293.4,161.1,1291.3,163.9,1288.3,166.6z"/>
			<path d="M1303.8,208.3c4.4,0,9-1.5,12.3-3.3c3.2-1.8,5.1-5.2,5.1-12.8c0-21.4-1.2-40.5-2.8-65l-0.3-5.3l9.5-9.6l0.5,0.2
				c2,25,2.1,51,2.1,83.6c0,4.9,3.4,12.1,15.7,12.1h1.4v13.6h-2.2c-9.9,0-17.3-3.4-20.7-11.3h-0.4c-3.3,6.1-10.2,11.3-20.5,11.3
				h-1.8c-5.8,0-7.4-4.3-7.4-7.1c0-2.6,1.7-6.5,7.4-6.5H1303.8z"/>
			<path d="M1349.8,208.3c3.4,0,7.3-0.4,11.9-2.9c3.7-2.1,5.6-6,5.6-11.5c-0.2-17-1.4-35.6-3.1-55.2c-0.4-4.9-1.1-9.4-1.1-13.3
				c0-2.3,1.1-4.8,3.2-7.1c1.5-1.8,3.5-3.8,5.8-5.8l0.7,0.5c-0.2,6.9,3.1,15.2,8.6,24.4c-1.9,1.8-4.1,3.6-6.7,5.4
				c0.4,12.2,1.4,25.1,1.4,36.9c0,11.5-1.2,20.3-4.3,26.7c-2.2,5.4-4.8,9.9-9.7,12.3c-4.1,2.1-9.1,3.2-13.3,3.2h-1.6
				c-5.8,0-7.4-4.3-7.4-7.1c0-2.6,1.7-6.5,7.4-6.5H1349.8z"/>
			<path d="M1490.4,187.1c-12.3-4.6-19.8-6-29.6-6c-6.1,0-10.5,1.9-13.5,5.3l2.1,8.9l-3,8.4l-1.2,0.3l-6.2-16.8
				c0.9-11.8,10.3-19.1,23.1-19.1c7.1,0,18.4,2.6,34.9,9.3c5.1,2,10.3,3.3,18.2,3.4l9.4-0.1l0.1,0.2l-6.4,10.7
				c-7.2,0.7-23.5,5.2-28.4,7c-23.3,8.7-39.4,21.3-39.4,35.4c0,22.1,23.4,34.9,53.1,34.9c9.6,0,18.6-1,27.3-2.3l0.3,1.1
				c-5.4,4.5-11.5,9.4-17.3,12.7c-5.5,1.1-12.5,1.9-20.1,1.9c-28,0-51.3-13.6-51.3-43.2c0-25.3,21.4-45.4,47.9-51.7L1490.4,187.1z"
				/>
			<path d="M1605.6,208.3v13.6h-8.8c-0.5,6.7-3.6,15.1-8.1,21.8c-8.2,12.4-20,18.2-25.6,18.2c-9.7,0-20.4-4.5-30.6-10.7l1.8-3.5
				c4.1,2.2,9.3,3.8,15.6,3.8c10.7,0,20.4-5.3,29.6-14.7c5.1-5.2,8.6-9.5,10-14.9h-5.2c-21.7,0-32.8-6.9-32.8-21.8
				c0-7.2,2.3-12.8,5.4-17.1c4-5.8,9.7-10.2,16.4-10.2c9.8,0,19.9,13.7,22.9,35.5H1605.6z M1581.4,192.8c-3.4-3.8-7.3-6-11.3-6
				c-6,0-12,5.1-12,9.4c0,5.4,5,8.6,11.6,10.5c5.8,1.6,12.2,1.6,19.1,1.6C1587.7,202.4,1585,196.7,1581.4,192.8z"/>
			<path d="M1608.6,208.3c11.2,0,14.8-5.5,18-15.6c4.1-13.3,12.5-20.2,19.7-20.2c5.2,0,9.1,1.9,12.8,7.1c2.7,3.8,4.9,7.9,10.6,20
				c2.3,5,8,8.7,16.6,8.7h1.8v13.6h-2c-6.2,0-11.9-2.1-16.4-9.3h-0.4c-0.6,3.4-1.7,6.2-3.4,8.1c-2.2,2.3-4.6,3.5-7,3.5
				c-8.2,0.1-21.6-5.7-30.1-14.9h-0.4c-3,6.8-9.7,12.5-21.2,12.5h-1.6c-5.8,0-7.4-4.3-7.4-7.1c0-2.6,1.7-6.5,7.4-6.5H1608.6z
				 M1644.5,206.5c4.8,2.8,11,4.7,14.7,4.7c2,0,3.9-0.2,3.9-2.7c0-4.1-2.6-9.9-5.3-14.1c-4.1-6.3-9-9.6-13.6-9.6
				c-5.8,0-10.3,4-12.2,9.6C1633,198.3,1639.8,203.8,1644.5,206.5z"/>
			<path d="M1697.9,208.3l5.7-9.7c1.4-5.4,1.6-10.2,1.6-21.2c0-14.5-1.5-36.7-2.7-48.8c-0.3-3.3-0.6-7.1-0.6-10.4
				c0-4.8,3-8.2,8.3-12.2l0.7,0.7c0,6.2,3.1,13.8,9,23.3l-6.9,5.4c0.5,11.5,1,23,1,34.5c0,9.4-1.4,15.6-3.7,21.3h0.4
				c7.9-8,16.4-15.4,23.4-19.9c6-3.7,13.1-6.4,20-6.4c6.1,0,12,2.3,15.8,6c4.9,4.6,8,11.1,8,18.8c0,2-1.3,7.2-2.4,11.3
				c-5.3,18.4-42.4,21-63.5,21h-23.9c-5.8,0-7.4-4.3-7.4-7.1c0-2.6,1.7-6.5,7.4-6.5H1697.9z M1714.6,208.3c23.1,0,37.8-2.3,49-8
				c3.1-1.5,5.2-3.3,6.4-4.9c-0.1-7.6-8.8-16.4-20.4-16.4c-13.7,0-29,11.2-44.3,29.2H1714.6z"/>
		</g>
		<g>
			<path d="M486.4,216.6c-5.9,0-11-2.8-11-9.5c0-3.3,1.3-6.1,3.2-8.7c2.3-2.5,4.8-4.2,7.2-4.2c2.9,0,5.6,2.1,7.6,5.7
				c1.9,3.5,3.2,8.3,3.2,13.9c0,4.7-1.2,9.1-3.8,13.3c-4.5,6.8-8.8,9.6-12.9,9.6c-4.6,0-9.4-1.5-14.5-4.9l0.8-1.6
				c2.5,1.3,4.9,1.7,7.4,1.7c5.1,0,10.2-2.6,14.8-7.7c2.3-2.5,4.4-5.4,4.7-8.4C490.9,216.3,488.7,216.6,486.4,216.6z M484.2,200.7
				c-2.4,0-5.6,2.6-5.6,4.5c0,3.1,4.4,5.3,8.6,5.3c1.9,0,3.9-0.2,5.7-0.7C491.4,204.7,488.5,200.7,484.2,200.7z"/>
			<path d="M509.1,222.8c-2.5,0-4.3-1.7-4.3-4.5c0-2.5,1.9-4.4,4.4-4.4c2.6,0,4.4,1.9,4.4,4.4c0,2.8-1.8,4.5-4.4,4.5H509.1z"/>
			<path d="M551.4,202.1c1.4,2.5,2.3,4.9,3.2,7.6c0.7,1.6,1,4.5,4.1,4.5c0.9,0,2.2-0.4,3.4-1.1c1.3-0.8,2.3-2,2.8-3.9l1.3-4.9l3-1.8
				l0.2,0.3c-0.4,1.9-0.5,3.6-0.5,5c0,4.1,3,5.7,5.4,5.7c1.4,0,2.7-0.8,2.7-2.3c0-2-0.7-5.3-1.6-8.3c1.4-1.7,2.8-3.3,4.4-4.7
				l0.3,0.2c0.7,3.5,1.1,7,1.1,9.3c0,2.3-0.9,4.8-1.6,6.4c-1.5,3.2-4,5.8-7.2,5.8c-2.4,0-5-1.4-6.8-4h-0.1c-1.7,2.5-4.3,4.7-8.6,4.7
				h-1.3c-0.2,3.3-0.8,5.6-1.7,7.7c-2.5,5.8-10,9.9-17,9.9c-9.8,0-14.7-6.7-14.7-15.5c0-5.4,1.5-10.5,3.8-14.1l1.9,0.9
				c-1.5,3.3-2.4,6.4-2.4,9.4c0,8.3,5.7,12.2,12.3,12.2c6.1,0,13.7-4.6,15-9.9c-0.5-5.8-2.4-8.5-5.2-13.8c0.9-1.8,2-3.5,3.3-5.4
				H551.4z M561.7,194.9c-2.1-2-3.9-3.6-5.9-5.2c1.3-1.8,2.7-3.5,4-4.8c2.1,1.6,3.8,3.3,5.7,5.4
				C564.1,192.2,563.1,193.6,561.7,194.9z M564.4,184.1c-2.1-2-3.9-3.6-5.9-5.2c1.3-1.8,2.7-3.5,4-4.8c2.1,1.6,3.8,3.3,5.7,5.4
				C566.8,181.5,565.8,182.8,564.4,184.1z M571.4,194.2c-2.1-2-3.9-3.6-5.9-5.2c1.3-1.8,2.7-3.5,4-4.8c2.1,1.6,3.8,3.3,5.7,5.4
				C573.8,191.6,572.8,192.9,571.4,194.2z"/>
			<path d="M594,222.8c-2.5,0-4.3-1.7-4.3-4.5c0-2.5,1.9-4.4,4.4-4.4c2.6,0,4.4,1.9,4.4,4.4c0,2.8-1.8,4.5-4.4,4.5H594z"/>
			<path d="M636.3,202.1c1.4,2.5,2.3,4.9,3.2,7.6c0.7,1.6,1,4.5,4.1,4.5c0.9,0,2.2-0.4,3.4-1.1c1.3-0.8,2.3-2,2.8-3.9l1.3-4.9l3-1.8
				l0.2,0.3c-0.4,1.9-0.5,3.6-0.5,5c0,4.1,3,5.7,5.4,5.7c1.4,0,2.7-0.8,2.7-2.3c0-2-0.7-5.3-1.6-8.3c1.4-1.7,2.8-3.3,4.4-4.7
				l0.3,0.2c0.7,3.5,1.1,7,1.1,9.3c0,2.3-0.9,4.8-1.6,6.4c-1.5,3.2-4,5.8-7.2,5.8c-2.4,0-5-1.4-6.8-4h-0.1c-1.7,2.5-4.3,4.7-8.6,4.7
				h-1.3c-0.2,3.3-0.8,5.6-1.7,7.7c-2.5,5.8-10,9.9-17,9.9c-9.8,0-14.7-6.7-14.7-15.5c0-5.4,1.5-10.5,3.8-14.1l1.9,0.9
				c-1.5,3.3-2.4,6.4-2.4,9.4c0,8.3,5.7,12.2,12.3,12.2c6.1,0,13.7-4.6,15-9.9c-0.5-5.8-2.4-8.5-5.2-13.8c0.9-1.8,2-3.5,3.3-5.4
				H636.3z M646.5,194.9c-2.1-2-3.9-3.6-5.9-5.2c1.3-1.8,2.7-3.5,4-4.8c2.1,1.6,3.8,3.3,5.7,5.4
				C648.9,192.2,647.9,193.6,646.5,194.9z M649.2,184.1c-2.1-2-3.9-3.6-5.9-5.2c1.3-1.8,2.7-3.5,4-4.8c2.1,1.6,3.8,3.3,5.7,5.4
				C651.7,181.5,650.6,182.8,649.2,184.1z M656.2,194.2c-2.1-2-3.9-3.6-5.9-5.2c1.3-1.8,2.7-3.5,4-4.8c2.1,1.6,3.8,3.3,5.7,5.4
				C658.7,191.6,657.6,192.9,656.2,194.2z"/>
			<path d="M706.7,213.3c-5.5,0-8.3,2.3-8.3,3.7c0,5.2,3.7,14.9,6.4,25.5c0.3,1.2,0.6,3,0.6,4.5c0,2.6-0.6,5-1.2,7.4l-1.2-0.2
				c-0.1-5.9-4.1-16.1-7.4-26.6c-0.5-1.7-1-4.2-1-5.8c0-2.3,0.5-4.5,1.3-6.7c1.1-2.8,2.5-5.2,4.5-6.6c-0.4-2.2-0.8-4.7-0.8-6.5
				c0-2.1,1.5-4.8,2.8-6c1.4-1.2,2.9-2.1,4.7-2.1c2.3,0,4.4,0.7,6.3,2.2c3.1,2.6,5.7,5.9,7.7,9.8c0.4,0.9,0.7,2.2,0.7,3.2
				c0,1.7-0.9,3.8-1.7,5.3C715.8,213.9,711.3,213.3,706.7,213.3z M716.8,207.5c-2.9-3.8-5.9-7.6-10.7-7.6c-1,0-2.1,0.2-3.1,0.6
				l0.2,2.6c-0.3,1.9-0.8,3.7-1.3,4.8c1.8-0.6,4.3-0.9,6.9-0.9c1.7,0,5,0.4,7.9,1L716.8,207.5z"/>
			<path d="M734.8,222.8c-2.5,0-4.3-1.7-4.3-4.5c0-2.5,1.9-4.4,4.4-4.4c2.6,0,4.4,1.9,4.4,4.4c0,2.8-1.8,4.5-4.4,4.5H734.8z"/>
			<path d="M759.9,213.3c-5.5,0-8.3,2.3-8.3,3.7c0,5.2,3.7,14.9,6.4,25.5c0.3,1.2,0.6,3,0.6,4.5c0,2.6-0.6,5-1.2,7.4l-1.2-0.2
				c-0.1-5.9-4.1-16.1-7.4-26.6c-0.5-1.7-1-4.2-1-5.8c0-2.3,0.5-4.5,1.3-6.7c1.1-2.8,2.5-5.2,4.5-6.6c-0.4-2.2-0.8-4.7-0.8-6.5
				c0-2.1,1.5-4.8,2.8-6c1.4-1.2,2.9-2.1,4.7-2.1c2.3,0,4.4,0.7,6.3,2.2c3.1,2.6,5.7,5.9,7.7,9.8c0.4,0.9,0.7,2.2,0.7,3.2
				c0,1.7-0.9,3.8-1.7,5.3C769.1,213.9,764.5,213.3,759.9,213.3z M770,207.5c-2.9-3.8-5.9-7.6-10.7-7.6c-1,0-2.1,0.2-3.1,0.6
				l0.2,2.6c-0.3,1.9-0.8,3.7-1.3,4.8c1.8-0.6,4.3-0.9,6.9-0.9c1.7,0,5,0.4,7.9,1L770,207.5z"/>
			<path d="M788,222.8c-2.5,0-4.3-1.7-4.3-4.5c0-2.5,1.9-4.4,4.4-4.4c2.6,0,4.4,1.9,4.4,4.4c0,2.8-1.8,4.5-4.4,4.5H788z"/>
			<path d="M803.8,208.2c0.2,4.3,2,7.8,8.3,7.8c3.9,0,7.3-1.2,10.9-3.3c0.7-0.4,1-0.8,1-1.2c0-2.7-1.8-6.3-4.7-9.6
				c-2.9-3.1-6.7-5.8-10.3-7.6c-1.2-0.6-1.6-1.3-1.6-1.9c0-1.3,1.4-3.9,2.6-5.7l0.4-0.1c4.1,2.5,8.7,6.2,12,10.4
				c3.1,3.8,5,7.7,5,11.9c0,3.1-0.8,6.1-2.1,8.8c-4.5,2.7-9.3,4.7-14,4.7c-5.7,0-9.7-3.2-9.7-10.6c0-0.8,0-2.1,0.3-3.7H803.8z
				 M809.3,170c2.1,1.5,4.1,3.3,6,5.4c-1.1,1.8-2.5,3.5-4.2,4.9c-2-1.9-3.9-3.5-5.9-5.2C806.6,173.3,808,171.5,809.3,170z"/>
		</g>
	</g>
	<g>
		<g>
			<path d="M478.2,364.5v-58.8h-20.6v-12h55.2v12h-20.6v58.8H478.2z"/>
			<path d="M531.7,328.9l-12.1-2.2c1.4-5,3.7-8.6,7-11s8.2-3.6,14.8-3.6c5.9,0,10.4,0.7,13.3,2.1c2.9,1.4,5,3.2,6.1,5.5
				c1.2,2.2,1.8,6.2,1.8,12.1l-0.1,15.8c0,4.5,0.2,7.8,0.6,10s1.2,4.4,2.4,6.9h-13.2c-0.3-0.9-0.8-2.2-1.3-4
				c-0.2-0.8-0.4-1.3-0.5-1.6c-2.3,2.3-4.7,3.9-7.3,5.1c-2.6,1.1-5.4,1.7-8.3,1.7c-5.2,0-9.3-1.4-12.3-4.3c-3-2.9-4.5-6.5-4.5-10.9
				c0-2.9,0.7-5.5,2-7.7c1.4-2.3,3.3-4,5.7-5.2c2.4-1.2,6-2.3,10.6-3.2c6.2-1.2,10.5-2.3,12.9-3.3v-1.4c0-2.6-0.6-4.5-1.9-5.6
				c-1.3-1.1-3.7-1.7-7.2-1.7c-2.4,0-4.2,0.5-5.5,1.4C533.6,324.9,532.6,326.5,531.7,328.9z M549.6,339.9c-1.7,0.6-4.4,1.3-8.1,2.1
				s-6.1,1.6-7.3,2.4c-1.7,1.3-2.6,2.8-2.6,4.8c0,1.9,0.7,3.5,2.1,4.9c1.4,1.4,3.2,2.1,5.3,2.1c2.4,0,4.7-0.8,6.9-2.4
				c1.6-1.2,2.7-2.7,3.2-4.5c0.3-1.2,0.5-3.4,0.5-6.6V339.9z"/>
			<path d="M574.8,313.3h12.3v7c4.4-5.4,9.6-8.2,15.7-8.2c3.2,0,6,0.7,8.4,2c2.4,1.4,4.3,3.4,5.8,6.1c2.2-2.7,4.6-4.8,7.2-6.1
				s5.3-2,8.2-2c3.7,0,6.8,0.8,9.4,2.3c2.6,1.5,4.5,3.8,5.7,6.7c0.9,2.2,1.4,5.7,1.4,10.6v32.8h-13.3v-29.3c0-5.1-0.5-8.4-1.4-9.8
				c-1.2-1.9-3.1-2.9-5.7-2.9c-1.9,0-3.6,0.6-5.3,1.7c-1.6,1.2-2.8,2.9-3.6,5.1c-0.7,2.2-1.1,5.8-1.1,10.6v24.6h-13.3v-28.1
				c0-5-0.2-8.2-0.7-9.6s-1.2-2.5-2.2-3.2c-1-0.7-2.3-1.1-4.1-1.1c-2.1,0-3.9,0.6-5.5,1.7c-1.6,1.1-2.8,2.7-3.5,4.9
				c-0.7,2.1-1.1,5.6-1.1,10.6v24.9h-13.3V313.3z"/>
			<path d="M659,338.2c0-4.5,1.1-8.9,3.3-13.1c2.2-4.2,5.3-7.4,9.3-9.6c4-2.2,8.5-3.3,13.4-3.3c7.6,0,13.9,2.5,18.7,7.5
				c4.9,5,7.3,11.4,7.3,19.1c0,7.8-2.5,14.2-7.4,19.3c-4.9,5.1-11.1,7.6-18.6,7.6c-4.6,0-9-1.1-13.2-3.2c-4.2-2.1-7.4-5.2-9.6-9.3
				C660.1,349.1,659,344.1,659,338.2z M672.7,338.9c0,5.1,1.2,9,3.6,11.7c2.4,2.7,5.3,4.1,8.8,4.1c3.5,0,6.4-1.4,8.7-4.1
				c2.4-2.7,3.5-6.6,3.5-11.8c0-5-1.2-8.9-3.5-11.6c-2.4-2.7-5.3-4.1-8.7-4.1c-3.5,0-6.4,1.4-8.8,4.1
				C673.9,329.9,672.7,333.8,672.7,338.9z"/>
			<path d="M754.6,364.5v-7.7c-1.8,2.7-4.2,4.9-7.2,6.5s-6.1,2.4-9.5,2.4c-3.4,0-6.4-0.8-9.1-2.3c-2.7-1.5-4.6-3.6-5.8-6.4
				c-1.2-2.7-1.8-6.5-1.8-11.3v-32.4h13.3v23.5c0,7.2,0.2,11.6,0.7,13.2c0.5,1.6,1.4,2.9,2.7,3.9c1.3,0.9,2.9,1.4,4.9,1.4
				c2.3,0,4.3-0.6,6.1-1.9s3-2.8,3.7-4.7c0.7-1.9,1-6.5,1-13.8v-21.6H767v51.2H754.6z"/>
			<path d="M794,293.8v26c4.3-5.1,9.4-7.7,15.4-7.7c3.1,0,5.8,0.6,8.3,1.7c2.5,1.2,4.3,2.6,5.6,4.4c1.2,1.8,2.1,3.8,2.6,6
				c0.5,2.2,0.7,5.6,0.7,10.2v30.1h-13.3v-27.1c0-5.4-0.3-8.8-0.8-10.2c-0.5-1.4-1.4-2.6-2.7-3.4c-1.3-0.9-2.9-1.3-4.8-1.3
				c-2.2,0-4.2,0.5-5.9,1.6c-1.7,1.1-3,2.7-3.8,4.9s-1.2,5.5-1.2,9.8v25.7h-13.3v-70.7H794z"/>
			<path d="M867.1,364.5v-70.7h51.5v12h-37.5v15.7h34.9v11.9h-34.9v19.2H920v11.9H867.1z"/>
			<path d="M930.8,313.3h12.3v7c4.4-5.4,9.6-8.2,15.7-8.2c3.2,0,6,0.7,8.4,2c2.4,1.4,4.3,3.4,5.8,6.1c2.2-2.7,4.6-4.8,7.2-6.1
				c2.6-1.4,5.3-2,8.2-2c3.7,0,6.8,0.8,9.4,2.3c2.6,1.5,4.5,3.8,5.7,6.7c0.9,2.2,1.4,5.7,1.4,10.6v32.8h-13.3v-29.3
				c0-5.1-0.5-8.4-1.4-9.8c-1.2-1.9-3.1-2.9-5.7-2.9c-1.9,0-3.6,0.6-5.3,1.7c-1.6,1.2-2.8,2.9-3.6,5.1c-0.7,2.2-1.1,5.8-1.1,10.6
				v24.6h-13.3v-28.1c0-5-0.2-8.2-0.7-9.6c-0.5-1.4-1.2-2.5-2.2-3.2c-1-0.7-2.3-1.1-4.1-1.1c-2.1,0-3.9,0.6-5.5,1.7
				s-2.8,2.7-3.5,4.9c-0.7,2.1-1.1,5.6-1.1,10.6v24.9h-13.3V313.3z"/>
			<path d="M1017.8,313.3h12.4v7.5c1.6-2.6,3.8-4.7,6.5-6.3c2.8-1.6,5.8-2.4,9.2-2.4c5.8,0,10.8,2.3,14.9,7
				c4.1,4.7,6.1,11.2,6.1,19.5c0,8.6-2.1,15.2-6.2,19.9c-4.1,4.7-9.1,7.1-14.9,7.1c-2.8,0-5.3-0.6-7.6-1.7c-2.3-1.1-4.6-3.1-7.1-5.8
				V384h-13.3V313.3z M1031,338c0,5.8,1.1,10,3.4,12.8c2.2,2.8,5,4.1,8.2,4.1c3.1,0,5.7-1.3,7.7-3.8c2.1-2.5,3.1-6.7,3.1-12.4
				c0-5.4-1.1-9.4-3.2-12c-2.1-2.6-4.7-3.9-7.9-3.9c-3.3,0-6,1.3-8.1,3.8C1032,329.2,1031,333,1031,338z"/>
			<path d="M1077.5,364.5v-70.7h13.3v70.7H1077.5z"/>
			<path d="M1101.4,338.2c0-4.5,1.1-8.9,3.3-13.1c2.2-4.2,5.3-7.4,9.3-9.6c4-2.2,8.5-3.3,13.4-3.3c7.6,0,13.9,2.5,18.7,7.5
				c4.9,5,7.3,11.4,7.3,19.1c0,7.8-2.5,14.2-7.4,19.3c-4.9,5.1-11.1,7.6-18.6,7.6c-4.6,0-9-1.1-13.2-3.2c-4.2-2.1-7.4-5.2-9.6-9.3
				C1102.5,349.1,1101.4,344.1,1101.4,338.2z M1115,338.9c0,5.1,1.2,9,3.6,11.7c2.4,2.7,5.3,4.1,8.8,4.1c3.5,0,6.4-1.4,8.7-4.1
				c2.4-2.7,3.5-6.6,3.5-11.8c0-5-1.2-8.9-3.5-11.6c-2.4-2.7-5.3-4.1-8.7-4.1c-3.5,0-6.4,1.4-8.8,4.1
				C1116.2,329.9,1115,333.8,1115,338.9z"/>
			<path d="M1157.5,313.3h14.2l12,36.4l11.8-36.4h13.8l-17.8,49.3l-3.2,8.9c-1.2,3-2.3,5.3-3.3,6.8c-1.1,1.6-2.3,2.9-3.7,3.8
				c-1.4,1-3.1,1.7-5.1,2.3c-2,0.5-4.3,0.8-6.8,0.8c-2.6,0-5.1-0.3-7.5-0.8l-1.2-10.6c2.1,0.4,4,0.6,5.6,0.6c3.1,0,5.4-0.9,6.9-2.8
				c1.5-1.8,2.6-4.2,3.4-7.1L1157.5,313.3z"/>
			<path d="M1216.8,313.3h12.3v7c4.4-5.4,9.6-8.2,15.7-8.2c3.2,0,6,0.7,8.4,2c2.4,1.4,4.3,3.4,5.8,6.1c2.2-2.7,4.6-4.8,7.2-6.1
				c2.6-1.4,5.3-2,8.2-2c3.7,0,6.8,0.8,9.4,2.3c2.6,1.5,4.5,3.8,5.7,6.7c0.9,2.2,1.4,5.7,1.4,10.6v32.8h-13.3v-29.3
				c0-5.1-0.5-8.4-1.4-9.8c-1.2-1.9-3.1-2.9-5.7-2.9c-1.9,0-3.6,0.6-5.3,1.7c-1.6,1.2-2.8,2.9-3.6,5.1c-0.7,2.2-1.1,5.8-1.1,10.6
				v24.6h-13.3v-28.1c0-5-0.2-8.2-0.7-9.6c-0.5-1.4-1.2-2.5-2.2-3.2c-1-0.7-2.3-1.1-4.1-1.1c-2.1,0-3.9,0.6-5.5,1.7
				s-2.8,2.7-3.5,4.9c-0.7,2.1-1.1,5.6-1.1,10.6v24.9h-13.3V313.3z"/>
			<path d="M1333.3,348.2l13.3,2.3c-1.7,5-4.4,8.7-8.1,11.3s-8.3,3.9-13.8,3.9c-8.8,0-15.2-2.9-19.4-8.7c-3.3-4.7-5-10.5-5-17.7
				c0-8.5,2.2-15.1,6.5-19.9c4.4-4.8,9.9-7.2,16.5-7.2c7.5,0,13.4,2.5,17.7,7.5s6.4,12.7,6.2,23.1h-33.4c0.1,4,1.2,7.1,3.2,9.4
				s4.6,3.4,7.7,3.4c2.1,0,3.8-0.6,5.3-1.7C1331.5,352.7,1332.5,350.8,1333.3,348.2z M1334,334.5c-0.1-3.9-1.1-6.9-3-8.9
				s-4.2-3.1-6.9-3.1c-2.9,0-5.3,1.1-7.2,3.2c-1.9,2.2-2.8,5.1-2.8,8.8H1334z"/>
			<path d="M1403.9,364.5h-13.3v-26.1c0-5.5-0.3-9.1-0.9-10.7c-0.6-1.6-1.5-2.9-2.8-3.8s-2.8-1.4-4.6-1.4c-2.3,0-4.4,0.6-6.2,1.9
				c-1.8,1.3-3.1,3-3.8,5.1c-0.7,2.1-1,6-1,11.8v23.2H1358v-51.2h12.4v7.5c4.4-5.8,9.9-8.7,16.6-8.7c2.9,0,5.6,0.5,8.1,1.6
				c2.4,1.1,4.3,2.5,5.5,4.1c1.2,1.7,2.1,3.6,2.6,5.7c0.5,2.1,0.7,5.2,0.7,9.1V364.5z"/>
			<path d="M1440.5,313.3v10.8h-9.1v20.6c0,4.2,0.1,6.6,0.3,7.3c0.2,0.7,0.6,1.3,1.2,1.7c0.6,0.5,1.4,0.7,2.3,0.7
				c1.2,0,3-0.4,5.4-1.3l1.1,10.5c-3.1,1.4-6.6,2-10.5,2c-2.4,0-4.6-0.4-6.5-1.2c-1.9-0.8-3.3-1.9-4.2-3.2c-0.9-1.3-1.5-3.1-1.9-5.3
				c-0.3-1.6-0.4-4.8-0.4-9.6v-22.3h-6.1v-10.8h6.1v-10.2l13.4-7.9v18.1H1440.5z"/>
		</g>
		<g>
			<path d="M1467.3,364.5v-44.4h9V357h22.5v7.5H1467.3z"/>
			<path d="M1505.2,364.5v-8.6h8.6v8.6H1505.2z"/>
			<path d="M1522.8,364.5v-44.4h9V357h22.5v7.5H1522.8z"/>
			<path d="M1560.7,364.5v-8.6h8.6v8.6H1560.7z"/>
			<path d="M1606.8,348.1l8.8,2.8c-1.3,4.9-3.6,8.5-6.7,10.9c-3.1,2.4-7.1,3.6-11.9,3.6c-5.9,0-10.8-2-14.6-6.1
				c-3.8-4.1-5.7-9.6-5.7-16.6c0-7.4,1.9-13.2,5.8-17.3c3.8-4.1,8.9-6.2,15.2-6.2c5.5,0,9.9,1.6,13.3,4.9c2,1.9,3.6,4.7,4.6,8.2
				l-8.9,2.1c-0.5-2.3-1.6-4.2-3.3-5.5s-3.7-2-6.1-2c-3.3,0-6,1.2-8.1,3.6c-2.1,2.4-3.1,6.2-3.1,11.6c0,5.7,1,9.7,3.1,12.1
				c2,2.4,4.7,3.6,7.9,3.6c2.4,0,4.5-0.8,6.2-2.3C1604.8,353.7,1606,351.3,1606.8,348.1z"/>
			<path d="M1638.3,350l8.8-0.9c0.5,3,1.6,5.1,3.2,6.5c1.6,1.4,3.8,2.1,6.5,2.1c2.9,0,5.1-0.6,6.6-1.8c1.5-1.2,2.2-2.7,2.2-4.3
				c0-1.1-0.3-2-0.9-2.7c-0.6-0.7-1.7-1.4-3.2-1.9c-1.1-0.4-3.5-1-7.2-2c-4.8-1.2-8.2-2.7-10.2-4.4c-2.7-2.5-4.1-5.5-4.1-9
				c0-2.3,0.6-4.4,1.9-6.4s3.2-3.5,5.6-4.5c2.4-1,5.4-1.6,8.8-1.6c5.6,0,9.8,1.2,12.7,3.7c2.8,2.5,4.3,5.7,4.5,9.9l-9,0.4
				c-0.4-2.3-1.2-4-2.5-5c-1.3-1-3.2-1.5-5.7-1.5c-2.6,0-4.7,0.5-6.2,1.6c-1,0.7-1.4,1.6-1.4,2.8c0,1.1,0.4,2,1.3,2.7
				c1.1,1,3.9,2,8.3,3c4.4,1,7.6,2.1,9.8,3.2c2.1,1.1,3.8,2.6,4.9,4.5s1.8,4.3,1.8,7.1c0,2.6-0.7,5-2.1,7.2c-1.4,2.2-3.4,3.9-6,5
				c-2.6,1.1-5.8,1.6-9.7,1.6c-5.7,0-10-1.3-13-3.9S1638.9,355,1638.3,350z"/>
			<path d="M1682.3,364.5v-8.6h8.6v8.6H1682.3z"/>
			<path d="M1699.7,364.5v-44.7h14.5c5.5,0,9.1,0.2,10.7,0.7c2.6,0.7,4.7,2.1,6.4,4.4s2.6,5.2,2.6,8.7c0,2.7-0.5,5.1-1.5,6.9
				s-2.3,3.3-3.8,4.4c-1.5,1.1-3.1,1.8-4.7,2.1c-2.2,0.4-5.3,0.6-9.4,0.6h-5.9v16.9H1699.7z M1708.7,327.3V340h4.9
				c3.6,0,5.9-0.2,7.1-0.7c1.2-0.5,2.1-1.2,2.8-2.2c0.7-1,1-2.2,1-3.5c0-1.6-0.5-3-1.4-4c-1-1.1-2.2-1.7-3.6-2
				c-1.1-0.2-3.2-0.3-6.5-0.3H1708.7z"/>
			<path d="M1741.3,364.5v-8.6h8.6v8.6H1741.3z"/>
			<path d="M1787.4,348.1l8.8,2.8c-1.3,4.9-3.6,8.5-6.7,10.9c-3.1,2.4-7.1,3.6-11.9,3.6c-5.9,0-10.8-2-14.6-6.1
				c-3.8-4.1-5.7-9.6-5.7-16.6c0-7.4,1.9-13.2,5.8-17.3c3.8-4.1,8.9-6.2,15.2-6.2c5.5,0,9.9,1.6,13.3,4.9c2,1.9,3.6,4.7,4.6,8.2
				l-8.9,2.1c-0.5-2.3-1.6-4.2-3.3-5.5s-3.7-2-6.1-2c-3.3,0-6,1.2-8.1,3.6c-2.1,2.4-3.1,6.2-3.1,11.6c0,5.7,1,9.7,3.1,12.1
				c2,2.4,4.7,3.6,7.9,3.6c2.4,0,4.5-0.8,6.2-2.3C1785.4,353.7,1786.6,351.3,1787.4,348.1z"/>
		</g>
	</g>
</g>
</svg>
